<?xml version="1.0" standalone="yes"?>
<svg xmlns="http://www.w3.org/2000/svg" width="34" height="32">
<path style="fill:#010101; stroke:none;" d="M0 0L0 10C8.54751 10 12.6018 9.32746 14 0L0 0z"/>
<path style="fill:#ffcf41; stroke:none;" d="M14 0L15 1L14 0z"/>
<path style="fill:#ffd741; stroke:none;" d="M15 0C13.7128 2.7156 12.6688 6.35389 10.3619 8.39661C6.67206 11.6638 -4.93869 10.2249 4.01389 17.6651C5.24737 18.6902 6.58889 19.2771 8 20L5 31L9 32L9 30L27 32L26 27L30 15C33.1404 14.3667 33.2867 13.1211 33 10L20 8L19 0L15 0z"/>
<path style="fill:#ffd941; stroke:none;" d="M17 0L18 1L17 0z"/>
<path style="fill:#010101; stroke:none;" d="M19 0C21.3734 10.253 25.0251 8.86326 34 11L34 0L19 0z"/>
<path style="fill:#ffcf41; stroke:none;" d="M19 2L20 3L19 2z"/>
<path style="fill:#ffd341; stroke:none;" d="M13 3L14 4L13 3z"/>
<path style="fill:#ffd941; stroke:none;" d="M20 7L21 8L20 7z"/>
<path style="fill:#ffcf41; stroke:none;" d="M0 10L1 11L0 10z"/>
<path style="fill:#ffd941; stroke:none;" d="M11 10L12 11L11 10M29 10L30 11L29 10M31 10L32 11L31 10z"/>
<path style="fill:#ffcf41; stroke:none;" d="M33 11L34 12L33 11z"/>
<path style="fill:#ffd941; stroke:none;" d="M32 13L31 15L32 13z"/>
<path style="fill:#010101; stroke:none;" d="M33 14C25.6001 20.5427 28.3466 23.3904 27 32L34 32L33 14M0 15L0 32L6 32C5.17092 23.9835 8.75928 19.4153 0 15z"/>
<path style="fill:#ffcf41; stroke:none;" d="M1 15L2 16L1 15z"/>
<path style="fill:#ffd941; stroke:none;" d="M30 15L31 16L30 15z"/>
<path style="fill:#ffcf41; stroke:none;" d="M30 16L31 17L30 16z"/>
<path style="fill:#ffd941; stroke:none;" d="M25 19L26 20L25 19z"/>
<path style="fill:#ffcf41; stroke:none;" d="M7 20L8 21L7 20M26 23L27 24L26 23z"/>
<path style="fill:#ffd941; stroke:none;" d="M26 26L27 27L26 26z"/>
<path style="fill:#ffcf41; stroke:none;" d="M15 27L16 28L15 27z"/>
<path style="fill:#010101; stroke:none;" d="M10 31L10 32L24 32C19.0715 27.3086 15.5652 27.3986 10 31z"/>
<path style="fill:#ffd341; stroke:none;" d="M5 28L6 29L5 28z"/>
<path style="fill:#ffcf41; stroke:none;" d="M12 29L13 30L12 29z"/>
<path style="fill:#ffd941; stroke:none;" d="M9 30L10 31L9 30M7 31L8 32L7 31z"/>
<path style="fill:#ffcf41; stroke:none;" d="M9 31L10 32L9 31z"/>
<path style="fill:#ffd941; stroke:none;" d="M25 31L26 32L25 31z"/>
</svg>
