<?xml version="1.0" standalone="yes"?>
<svg xmlns="http://www.w3.org/2000/svg" width="54" height="54">
<path style="fill:#010101; stroke:none;" d="M0 0L0 14L1 14C4.55957 7.14289 10.5381 2.78889 18 1L0 0z"/>
<path style="fill:#717171; stroke:none;" d="M18 0L19 1L18 0z"/>
<path style="fill:#7d7d7d; stroke:none;" d="M3 26L4 32L6 31L7 36L26 54C36.4596 48.5148 52.8149 32.7899 53.8796 20.0185C55.3317 2.60074 32.5046 -1.22483 19.588 0.430557C11.8059 1.42789 3.76625 6.42754 0.967593 13.9815C-0.252525 17.2747 -1.25402 25.3648 3 26z"/>
<path style="fill:#7a7e7a; stroke:none;" d="M20 0L21 1L20 0M23.6667 0.333332L24.3333 0.666668L23.6667 0.333332M30 0L31 1L30 0M33 0L34 1L33 0z"/>
<path style="fill:#717171; stroke:none;" d="M35 0L36 1L35 0z"/>
<path style="fill:#010101; stroke:none;" d="M36 0L36 1C43.4619 2.78889 49.4404 7.1429 53 14L54 14L54 0L36 0z"/>
<path style="fill:#7a7a7a; stroke:none;" d="M38 1L39 2L38 1z"/>
<path style="fill:#717171; stroke:none;" d="M12 2L13 3L12 2z"/>
<path style="fill:#7a7e7a; stroke:none;" d="M40 2L41 3L40 2z"/>
<path style="fill:#7a7a7a; stroke:none;" d="M41 2L42 3L41 2z"/>
<path style="fill:#717171; stroke:none;" d="M10 3L11 4L10 3z"/>
<path style="fill:#7a7e7a; stroke:none;" d="M19 3L17 4L17 5L19 3M21 3L22 4L21 3M24 3L25 4L24 3z"/>
<path style="fill:#010101; stroke:none;" d="M25 3.46759C3.8737 5.57452 1.45926 21.4992 13.8704 36C16.9308 39.5757 21.6568 46.9722 27 46.9722C32.3432 46.9722 37.0692 39.5757 40.1296 36C53.2841 20.6307 48.0507 1.16875 25 3.46759z"/>
<path style="fill:#7a7e7a; stroke:none;" d="M29.6667 3.33333L30.3333 3.66667L29.6667 3.33333M32.6667 3.33333L33.3333 3.66667L32.6667 3.33333z"/>
<path style="fill:#7a7a7a; stroke:none;" d="M43 3L44 4L43 3z"/>
<path style="fill:#7a7e7a; stroke:none;" d="M35.6667 4.33333L36.3333 4.66667L35.6667 4.33333M44 4L45 5L44 4z"/>
<path style="fill:#7a7a7a; stroke:none;" d="M7 5L8 6L7 5M15 5L16 6L15 5z"/>
<path style="fill:#7a7e7a; stroke:none;" d="M38.6667 5.33333L39.3333 5.66667L38.6667 5.33333z"/>
<path style="fill:#7a7a7a; stroke:none;" d="M46 5L47 6L46 5z"/>
<path style="fill:#7a7e7a; stroke:none;" d="M12.6667 6.33333L13.3333 6.66667L12.6667 6.33333M40.6667 6.33333L41.3333 6.66667L40.6667 6.33333M47 6L48 7L47 6M10.3333 7.66667L10.6667 8.33333L10.3333 7.66667M43.3333 7.66667L43.6667 8.33333L43.3333 7.66667M3 9L4 10L3 9M8 9L9 10L8 9M45 9L46 10L45 9z"/>
<path style="fill:#7a7a7a; stroke:none;" d="M2 10L3 11L2 10z"/>
<path style="fill:#7a7e7a; stroke:none;" d="M46 10L47 13L48 13L46 10z"/>
<path style="fill:#7a7a7a; stroke:none;" d="M51 10L52 11L51 10z"/>
<path style="fill:#7a7e7a; stroke:none;" d="M6 11L6 13L8 11L6 11z"/>
<path style="fill:#7d7d7d; stroke:none;" d="M23 27C29.7842 26.5147 32.8508 25.6138 38 21C36.3218 15.6646 33.1116 11.675 27 11.5355C22.6373 11.4359 15.7058 15.1405 16.6813 20.3696C17.2373 23.3501 21.0166 25.0248 23 27z"/>
<path style="fill:#717171; stroke:none;" d="M28 11L29 12L28 11z"/>
<path style="fill:#7d7d7d; stroke:none;" d="M46 11L47 12L46 11z"/>
<path style="fill:#7a7e7a; stroke:none;" d="M1 12L2 13L1 12z"/>
<path style="fill:#717171; stroke:none;" d="M21 12L22 13L21 12z"/>
<path style="fill:#7a7e7a; stroke:none;" d="M22 12L23 13L22 12M31 12L32 13L31 12z"/>
<path style="fill:#7a7a7a; stroke:none;" d="M32 12L33 13L32 12z"/>
<path style="fill:#7a7e7a; stroke:none;" d="M5.33333 13.6667L5.66667 14.3333L5.33333 13.6667z"/>
<path style="fill:#717171; stroke:none;" d="M19 13L20 14L19 13M34 13L35 14L34 13z"/>
<path style="fill:#7a7e7a; stroke:none;" d="M48.3333 13.6667L48.6667 14.3333L48.3333 13.6667z"/>
<path style="fill:#7a7a7a; stroke:none;" d="M0 14L1 15L0 14M18 14L19 15L18 14M35 14L36 15L35 14M17 15L18 16L17 15z"/>
<path style="fill:#010101; stroke:none;" d="M25.0625 15.7863C18.358 18.1618 24.5556 24.6486 29.767 22.2539C35.238 19.7398 29.3157 14.2793 25.0625 15.7863z"/>
<path style="fill:#7a7e7a; stroke:none;" d="M29.6667 15.3333L30.3333 15.6667L29.6667 15.3333z"/>
<path style="fill:#7a7a7a; stroke:none;" d="M36 15L37 16L36 15M4 16L5 17L4 16z"/>
<path style="fill:#7a7e7a; stroke:none;" d="M21.6667 16.3333L22.3333 16.6667L21.6667 16.3333M31.6667 16.3333L32.3333 16.6667L31.6667 16.3333M53 16L54 17L53 16M0 17L1 18L0 17z"/>
<path style="fill:#7a7a7a; stroke:none;" d="M16 17L17 18L16 17z"/>
<path style="fill:#717171; stroke:none;" d="M37 17L38 18L37 17z"/>
<path style="fill:#7a7a7a; stroke:none;" d="M4 18L5 19L4 18z"/>
<path style="fill:#7a7e7a; stroke:none;" d="M20.3333 18.6667L20.6667 19.3333L20.3333 18.6667M33 18L34 19L33 18z"/>
<path style="fill:#7a7a7a; stroke:none;" d="M37.3333 18.6667L37.6667 19.3333L37.3333 18.6667z"/>
<path style="fill:#7a7e7a; stroke:none;" d="M49.3333 18.6667L49.6667 19.3333L49.3333 18.6667z"/>
<path style="fill:#7a7a7a; stroke:none;" d="M16 19L17 20L16 19z"/>
<path style="fill:#7a7e7a; stroke:none;" d="M4 20L5 21L4 20z"/>
<path style="fill:#717171; stroke:none;" d="M21 20L22 21L21 20z"/>
<path style="fill:#7a7a7a; stroke:none;" d="M32 20L33 21L32 20M4 21L5 22L4 21z"/>
<path style="fill:#7a7e7a; stroke:none;" d="M36.3333 21.6667L36.6667 22.3333L36.3333 21.6667z"/>
<path style="fill:#7a7a7a; stroke:none;" d="M23 22L24 23L23 22z"/>
<path style="fill:#717171; stroke:none;" d="M30 22L31 23L30 22z"/>
<path style="fill:#7a7e7a; stroke:none;" d="M31 22L32 23L31 22z"/>
<path style="fill:#717171; stroke:none;" d="M5 23L6 24L5 23z"/>
<path style="fill:#7a7e7a; stroke:none;" d="M25 23L26 24L25 23z"/>
<path style="fill:#7a7a7a; stroke:none;" d="M26.6667 23.3333L27.3333 23.6667L26.6667 23.3333z"/>
<path style="fill:#7a7e7a; stroke:none;" d="M28 23L29 24L28 23z"/>
<path style="fill:#7a7a7a; stroke:none;" d="M48 23L49 24L48 23M53 23L54 24L53 23z"/>
<path style="fill:#010101; stroke:none;" d="M0 24L0 54L26 54L26 53L0 24z"/>
<path style="fill:#7a7e7a; stroke:none;" d="M19 24L19 25L23 26L23 25L19 24z"/>
<path style="fill:#7a7a7a; stroke:none;" d="M34 24L35 25L34 24z"/>
<path style="fill:#7a7e7a; stroke:none;" d="M52 24L50 30L51 30L52 24z"/>
<path style="fill:#010101; stroke:none;" d="M53 24L29 54L54 54L53 24z"/>
<path style="fill:#717171; stroke:none;" d="M6 25L7 26L6 25z"/>
<path style="fill:#7a7e7a; stroke:none;" d="M33 25L34 26L33 25z"/>
<path style="fill:#7a7a7a; stroke:none;" d="M47 25L48 26L47 25z"/>
<path style="fill:#7a7e7a; stroke:none;" d="M2.33333 26.6667L2.66667 27.3333L2.33333 26.6667M24 26L25 27L24 26M29 26L30 27L29 26z"/>
<path style="fill:#7a7a7a; stroke:none;" d="M7 27L8 28L7 27M46 27L47 28L46 27z"/>
<path style="fill:#7a7e7a; stroke:none;" d="M8 29L9 30L8 29M45 29L46 30L45 29z"/>
<path style="fill:#7a7a7a; stroke:none;" d="M9 30L10 31L9 30M44 30L45 31L44 30z"/>
<path style="fill:#7a7e7a; stroke:none;" d="M5.33333 31.6667L5.66667 32.3333L5.33333 31.6667M9 31L10 32L9 31M48.3333 31.6667L48.6667 32.3333L48.3333 31.6667M6 33L7 34L6 33M11 33L12 34L11 33M7 34L8 35L7 34z"/>
<path style="fill:#7a7a7a; stroke:none;" d="M12 34L13 35L12 34M41 34L42 35L41 34z"/>
<path style="fill:#7a7e7a; stroke:none;" d="M46 34L44 38L46 34M8 35L10 38L8 35z"/>
<path style="fill:#7a7a7a; stroke:none;" d="M13 35L14 36L13 35M40 35L41 36L40 35z"/>
<path style="fill:#717171; stroke:none;" d="M14 36L16 38L14 36z"/>
<path style="fill:#7a7a7a; stroke:none;" d="M39 36L40 37L39 36z"/>
<path style="fill:#7a7e7a; stroke:none;" d="M14 37L15 38L14 37z"/>
<path style="fill:#717171; stroke:none;" d="M38 37L39 38L38 37z"/>
<path style="fill:#7a7e7a; stroke:none;" d="M10 38L11 39L10 38M38 38L39 39L38 38M37 39L38 40L37 39M39 42L40 43L39 42M15 43L16 44L15 43M38 43L39 44L38 43M16 44L17 45L16 44M32 44L33 45L32 44M37 44L38 45L37 44M31 45L32 46L31 45M36 45L37 46L36 45z"/>
<path style="fill:#717171; stroke:none;" d="M24 46L25 47L24 46M29 46L30 47L29 46z"/>
<path style="fill:#7a7e7a; stroke:none;" d="M35 46L36 47L35 46M24 47L25 48L24 47z"/>
<path style="fill:#7a7a7a; stroke:none;" d="M25 47L26 48L25 47M28 47L29 48L28 47M26.6667 48.3333L27.3333 48.6667L26.6667 48.3333z"/>
<path style="fill:#7a7e7a; stroke:none;" d="M21 49L22 50L21 49M23 51L25 53L25 51L23 51M30 51L31 52L30 51M27 54L30 52L27 54z"/>
</svg>
