<?xml version="1.0" standalone="yes"?>
<svg xmlns="http://www.w3.org/2000/svg" width="34" height="36">
<path style="fill:#010101; stroke:none;" d="M0 0L0 9L1 9C5.39558 2.9108 9.83838 2.00474 17 2L17 4C13.446 4.00235 9.25175 3.51323 6.21373 5.74228C0.185126 10.1656 -0.0398626 25.6573 5.27855 30.6821C9.29477 34.4766 23.4603 34.6798 27.3472 30.5664C30.4784 27.2527 29.9972 22.1947 30 18L33 18C32.8469 25.3782 31.0997 31.6589 24 35L24 36L34 36L34 9L33 9C25.7193 17.1568 21.0266 7.23309 25 0L0 0z"/>
<path style="fill:#ff0101; stroke:none;" d="M25.1481 1.03241C18.6928 4.71333 23.9714 15.7048 30.7716 11.8056C37.2208 8.10753 32.009 -2.8797 25.1481 1.03241z"/>
<path style="fill:#010101; stroke:none;" d="M31 0L34 3L31 0z"/>
<path style="fill:#519059; stroke:none;" d="M7 2L8 3L7 2z"/>
<path style="fill:#519359; stroke:none;" d="M30 18C30.016 20.944 30.6552 24.5336 29.3735 27.2816C25.3199 35.972 9.1216 36.8558 3.85802 28.8951C-2.96341 18.5782 3.3602 1.04322 17 4C13.1628 -0.391186 4.83751 2.65697 2.03395 7.04012C-1.95352 13.2742 -1.53231 27.8205 4.34028 32.7716C8.71502 36.4599 22.9028 36.6039 27.5208 33.142C31.7441 29.976 35.1107 21.326 30 18z"/>
<path style="fill:#519059; stroke:none;" d="M10 3L10 4L16 4L10 3M7 4L8 5L7 4M5 5L6 6L5 5M4 6L5 7L4 6M1 7L2 8L1 7M3 8L4 9L3 8M0 9L1 10L0 9z"/>
<path style="fill:#518f52; stroke:none;" d="M2 10L3 11L2 10z"/>
<path style="fill:#519059; stroke:none;" d="M0 11L1 12L0 11z"/>
<path style="fill:#518f52; stroke:none;" d="M32 18L33 19L32 18M32 24L33 25L32 24z"/>
<path style="fill:#519059; stroke:none;" d="M0 25L1 26L0 25M30 25L31 26L30 25z"/>
<path style="fill:#518f52; stroke:none;" d="M2 26L3 27L2 26z"/>
<path style="fill:#519059; stroke:none;" d="M0 27L1 28L0 27M29 27L30 28L29 27M31 27L32 28L31 27z"/>
<path style="fill:#010101; stroke:none;" d="M0 28L0 36L8 36L8 35L0 28z"/>
<path style="fill:#518f52; stroke:none;" d="M31 28L32 29L31 28z"/>
<path style="fill:#519059; stroke:none;" d="M3 29L4 30L3 29M28 29L29 30L28 29M2.33333 30.6667L2.66667 31.3333L2.33333 30.6667M4 30L5 31L4 30M30 30L31 31L30 30M5 31L6 32L5 31M29 31L30 32L29 31M3 32L4 33L3 32M25 32L26 33L25 32M28 32L29 33L28 32M4 33L5 34L4 33M9 33L9 34L24 34L9 33M25 34L26 35L25 34z"/>
<path style="fill:#518f52; stroke:none;" d="M26 34L27 35L26 34z"/>
<path style="fill:#519059; stroke:none;" d="M8 35L8 36L24 36L8 35z"/>
</svg>
