<?xml version="1.0" standalone="yes"?>
<svg xmlns="http://www.w3.org/2000/svg" width="60" height="60">
<path style="fill:#010101; stroke:none;" d="M0 0L0 22L1 22C3.96301 11.7382 11.7526 3.95771 22 1L0 0z"/>
<path style="fill:#52935a; stroke:none;" d="M22 0.52932C-16.2824 9.31715 -0.402618 68.2861 38 59.4707C76.2824 50.6828 60.4026 -8.2861 22 0.52932z"/>
<path style="fill:#010101; stroke:none;" d="M38 0L38 1C48.2618 3.96302 56.0423 11.7526 59 22L60 22L60 0L38 0z"/>
<path style="fill:#bad4bd; stroke:none;" d="M29.6667 10.3333L30.3333 10.6667L29.6667 10.3333z"/>
<path style="fill:#8db792; stroke:none;" d="M27 11L28 12L27 11z"/>
<path style="fill:#f5f9f6; stroke:none;" d="M20 13L14 21C16.3209 28.8314 20.0473 37.3629 17 45L24 50C28.9981 47.993 31.0019 47.993 36 50L43 45C39.4345 37.7862 43.7453 28.6081 46 21L40 13L20 13z"/>
<path style="fill:#8db792; stroke:none;" d="M32 11L33 12L32 11z"/>
<path style="fill:#bad4bd; stroke:none;" d="M26 12L27 13L26 12M29.6667 12.3333L30.3333 12.6667L29.6667 12.3333M33 12L34 13L33 12z"/>
<path style="fill:#8db792; stroke:none;" d="M28 13L29 14L28 13z"/>
<path style="fill:#52935a; stroke:none;" d="M21 37L39 37C41.0119 32.3619 43.7897 28.4568 42.6065 23.0895C39.9423 11.0041 22.8368 11.3131 17.9985 21.4252C15.3335 26.9948 18.8656 32.0794 21 37z"/>
<path style="fill:#8db792; stroke:none;" d="M19 14L20 15L19 14z"/>
<path style="fill:#bad4bd; stroke:none;" d="M26 14L27 15L26 14M33 14L34 15L33 14z"/>
<path style="fill:#8db792; stroke:none;" d="M40 14L41 15L40 14z"/>
<path style="fill:#bad4bd; stroke:none;" d="M19 15L20 16L19 15z"/>
<path style="fill:#8db792; stroke:none;" d="M21 15L22 16L21 15M38 15L39 16L38 15z"/>
<path style="fill:#bad4bd; stroke:none;" d="M40 15L41 16L40 15z"/>
<path style="fill:#8db792; stroke:none;" d="M18 17L19 18L18 17z"/>
<path style="fill:#bad4bd; stroke:none;" d="M20 17L21 18L20 17M39 17L40 18L39 17z"/>
<path style="fill:#8db792; stroke:none;" d="M41 17L42 18L41 17M17 18L18 19L17 18M20 18L21 19L20 18M27 18L28 19L27 18z"/>
<path style="fill:#bad4bd; stroke:none;" d="M28 18L28 19L32 19L28 18z"/>
<path style="fill:#8db792; stroke:none;" d="M32 18L33 19L32 18M39 18L40 19L39 18M42 18L43 19L42 18z"/>
<path style="fill:#bad4bd; stroke:none;" d="M16 19L17 20L16 19M19 19L20 20L19 19z"/>
<path style="fill:#8db792; stroke:none;" d="M25 19L26 20L25 19z"/>
<path style="fill:#f5f9f6; stroke:none;" d="M26.1088 20.0278C17.5111 24.8497 25.4632 37.1667 33.8912 32.5394C42.5923 27.762 34.3551 15.403 26.1088 20.0278z"/>
<path style="fill:#8db792; stroke:none;" d="M34 19L35 20L34 19z"/>
<path style="fill:#bad4bd; stroke:none;" d="M40 19L41 20L40 19M43 19L44 20L43 19z"/>
<path style="fill:#8db792; stroke:none;" d="M14 20L15 21L14 20M18 20L19 21L18 20z"/>
<path style="fill:#bad4bd; stroke:none;" d="M24 20L25 21L24 20M27 20L28 21L27 20z"/>
<path style="fill:#8db792; stroke:none;" d="M28 20L29 21L28 20z"/>
<path style="fill:#52935a; stroke:none;" d="M29.0401 20.7616C21.8568 21.916 23.82 32.8574 30.9815 31.6235C38.1451 30.3892 36.1816 19.6139 29.0401 20.7616z"/>
<path style="fill:#8db792; stroke:none;" d="M31 20L32 21L31 20z"/>
<path style="fill:#bad4bd; stroke:none;" d="M32 20L33 21L32 20M35 20L36 21L35 20M16 21L17 22L16 21M23 21L24 22L23 21M36 21L37 22L36 21M43 21L44 22L43 21M14 22L15 23L14 22z"/>
<path style="fill:#8db792; stroke:none;" d="M16 22L17 23L16 22M37 22L38 23L37 22M43 22L44 23L43 22z"/>
<path style="fill:#bad4bd; stroke:none;" d="M45 22L46 23L45 22z"/>
<path style="fill:#8db792; stroke:none;" d="M14 23L15 24L14 23z"/>
<path style="fill:#bad4bd; stroke:none;" d="M16 23L17 24L16 23M22 23L23 24L22 23z"/>
<path style="fill:#8db792; stroke:none;" d="M24 23L25 24L24 23M35 23L36 24L35 23z"/>
<path style="fill:#bad4bd; stroke:none;" d="M37 23L38 24L37 23M43 23L44 24L43 23z"/>
<path style="fill:#8db792; stroke:none;" d="M45 23L46 24L45 23z"/>
<path style="fill:#bad4bd; stroke:none;" d="M15 25L16 26L15 25z"/>
<path style="fill:#8db792; stroke:none;" d="M17.3333 25.6667L17.6667 26.3333L17.3333 25.6667z"/>
<path style="fill:#bad4bd; stroke:none;" d="M23.3333 25.6667L23.6667 26.3333L23.3333 25.6667M36 25L36 28L37 28L36 25z"/>
<path style="fill:#8db792; stroke:none;" d="M42 25L43 26L42 25z"/>
<path style="fill:#bad4bd; stroke:none;" d="M44 25L45 26L44 25z"/>
<path style="fill:#8db792; stroke:none;" d="M15 26L16 27L15 26z"/>
<path style="fill:#bad4bd; stroke:none;" d="M42 26L43 27L42 26z"/>
<path style="fill:#8db792; stroke:none;" d="M44 26L45 27L44 26z"/>
<path style="fill:#bad4bd; stroke:none;" d="M15 27L16 28L15 27M44 27L45 28L44 27M22.3333 28.6667L22.6667 29.3333L22.3333 28.6667M43.3333 28.6667L43.6667 29.3333L43.3333 28.6667z"/>
<path style="fill:#8db792; stroke:none;" d="M14 29L15 30L14 29M16.3333 29.6667L16.6667 30.3333L16.3333 29.6667z"/>
<path style="fill:#bad4bd; stroke:none;" d="M24 29L25 30L24 29M35 29L36 30L35 29z"/>
<path style="fill:#8db792; stroke:none;" d="M37 29L38 30L37 29M45 29L46 30L45 29z"/>
<path style="fill:#bad4bd; stroke:none;" d="M14.3333 30.6667L14.6667 31.3333L14.3333 30.6667M25 30L26 31L25 30M34 30L35 31L34 30z"/>
<path style="fill:#8db792; stroke:none;" d="M43 30L44 31L43 30z"/>
<path style="fill:#bad4bd; stroke:none;" d="M45.3333 30.6667L45.6667 31.3333L45.3333 30.6667M17 31L18 32L17 31M26 31L27 32L26 31M33 31L34 32L33 31z"/>
<path style="fill:#8db792; stroke:none;" d="M42 31L43 32L42 31M15 32L16 33L15 32z"/>
<path style="fill:#bad4bd; stroke:none;" d="M18 32L19 33L18 32M29.6667 32.3333L30.3333 32.6667L29.6667 32.3333M34 32L35 33L34 32M41 32L42 33L41 32z"/>
<path style="fill:#8db792; stroke:none;" d="M44 32L45 33L44 32z"/>
<path style="fill:#bad4bd; stroke:none;" d="M17 33L18 34L17 33z"/>
<path style="fill:#8db792; stroke:none;" d="M26 33L27 34L26 33z"/>
<path style="fill:#bad4bd; stroke:none;" d="M27 33L28 34L27 33M32 33L33 34L32 33z"/>
<path style="fill:#8db792; stroke:none;" d="M33 33L34 34L33 33z"/>
<path style="fill:#bad4bd; stroke:none;" d="M42 33L43 34L42 33M18 34L19 35L18 34z"/>
<path style="fill:#8db792; stroke:none;" d="M20 34L21 35L20 34M39 34L40 35L39 34z"/>
<path style="fill:#bad4bd; stroke:none;" d="M41 34L42 35L41 34z"/>
<path style="fill:#8db792; stroke:none;" d="M18 35L19 36L18 35z"/>
<path style="fill:#bad4bd; stroke:none;" d="M20 35L21 36L20 35M39 35L40 36L39 35z"/>
<path style="fill:#8db792; stroke:none;" d="M41 35L42 36L41 35z"/>
<path style="fill:#bad4bd; stroke:none;" d="M19 37L20 38L19 37M21 37L22 38L21 37z"/>
<path style="fill:#8db792; stroke:none;" d="M22 37L22 38L26 38L22 37M34 37L34 38L38 38L34 37z"/>
<path style="fill:#bad4bd; stroke:none;" d="M38 37L39 38L38 37M40 37L41 38L40 37z"/>
<path style="fill:#010101; stroke:none;" d="M0 38L0 60L22 60L22 59C10.2478 55.6067 6.27472 47.3259 0 38z"/>
<path style="fill:#8db792; stroke:none;" d="M19 38L20 39L19 38z"/>
<path style="fill:#bad4bd; stroke:none;" d="M27 38L28 39L27 38z"/>
<path style="fill:#8db792; stroke:none;" d="M32 38L33 39L32 38M40.3333 38.6667L40.6667 39.3333L40.3333 38.6667z"/>
<path style="fill:#010101; stroke:none;" d="M59 38C56.037 48.2618 48.2474 56.0423 38 59L38 60L60 60L59 38z"/>
<path style="fill:#bad4bd; stroke:none;" d="M19 39L20 40L19 39M21 39L22 40L21 39z"/>
<path style="fill:#8db792; stroke:none;" d="M22 39L22 40L26 40L22 39z"/>
<path style="fill:#bad4bd; stroke:none;" d="M28 39L27 41L28 39M31 39L33 41L31 39z"/>
<path style="fill:#8db792; stroke:none;" d="M34 39L34 40L39 41L34 39z"/>
<path style="fill:#52935a; stroke:none;" d="M20 44L25 48C29.091 45.7314 30.909 45.7314 35 48L40 44C36.9726 39.0692 22.3495 38.1559 20 44z"/>
<path style="fill:#f5f9f6; stroke:none;" d="M28 40L28 41L32 41L28 40z"/>
<path style="fill:#bad4bd; stroke:none;" d="M40 40L41 41L40 40M18 41L19 42L18 41M20 41L21 42L20 41z"/>
<path style="fill:#8db792; stroke:none;" d="M28 41L29 42L28 41M31 41L32 42L31 41z"/>
<path style="fill:#bad4bd; stroke:none;" d="M39 41L40 42L39 41z"/>
<path style="fill:#8db792; stroke:none;" d="M41 41L42 42L41 41M39 42L40 43L39 42z"/>
<path style="fill:#bad4bd; stroke:none;" d="M41 42L42 43L41 42z"/>
<path style="fill:#8db792; stroke:none;" d="M17 43L18 44L17 43z"/>
<path style="fill:#bad4bd; stroke:none;" d="M19 43L20 44L19 43M40 43L41 44L40 43z"/>
<path style="fill:#8db792; stroke:none;" d="M42 43L43 44L42 43z"/>
<path style="fill:#bad4bd; stroke:none;" d="M20 44L21 45L20 44z"/>
<path style="fill:#8db792; stroke:none;" d="M21.6667 44.3333L22.3333 44.6667L21.6667 44.3333M37 44L38 45L37 44z"/>
<path style="fill:#bad4bd; stroke:none;" d="M38.6667 44.3333L39.3333 44.6667L38.6667 44.3333z"/>
<path style="fill:#8db792; stroke:none;" d="M16 45L17 46L16 45z"/>
<path style="fill:#bad4bd; stroke:none;" d="M17 45L18 46L17 45z"/>
<path style="fill:#8db792; stroke:none;" d="M23 45L24 46L23 45z"/>
<path style="fill:#bad4bd; stroke:none;" d="M36 45L37 46L36 45M42 45L43 46L42 45z"/>
<path style="fill:#8db792; stroke:none;" d="M43 45L44 46L43 45M20.6667 46.3333L21.3333 46.6667L20.6667 46.3333z"/>
<path style="fill:#bad4bd; stroke:none;" d="M29.6667 46.3333L30.3333 46.6667L29.6667 46.3333z"/>
<path style="fill:#8db792; stroke:none;" d="M35 46L36 47L35 46M38 46L39 47L38 46z"/>
<path style="fill:#bad4bd; stroke:none;" d="M22 47L23 48L22 47M24 47L25 48L24 47M28 47L29 48L28 47M31 47L32 48L31 47z"/>
<path style="fill:#8db792; stroke:none;" d="M37 47L38 48L37 47z"/>
<path style="fill:#bad4bd; stroke:none;" d="M23 48L24 49L23 48M27 48L28 49L27 48M32 48L33 49L32 48M36 48L37 49L36 48M26 49L27 50L26 49M33 49L34 50L33 49z"/>
<path style="fill:#8db792; stroke:none;" d="M24 50L25 51L24 50z"/>
<path style="fill:#bad4bd; stroke:none;" d="M25 50L26 51L25 50M34 50L35 51L34 50z"/>
<path style="fill:#8db792; stroke:none;" d="M35 50L36 51L35 50z"/>
</svg>
