<?xml version="1.0" encoding="UTF-8"?>
<!DOCTYPE svg PUBLIC "-//W3C//DTD SVG 1.1//EN" "http://www.w3.org/Graphics/SVG/1.1/DTD/svg11.dtd">
<svg xmlns="http://www.w3.org/2000/svg" version="1.1" width="60px" height="60px" style="shape-rendering:geometricPrecision; text-rendering:geometricPrecision; image-rendering:optimizeQuality; fill-rule:evenodd; clip-rule:evenodd" xmlns:xlink="http://www.w3.org/1999/xlink">
<g><path style="opacity:0.985" fill="#519259" d="M 21.5,-0.5 C 26.8333,-0.5 32.1667,-0.5 37.5,-0.5C 48.5,3.16667 55.8333,10.5 59.5,21.5C 59.5,26.8333 59.5,32.1667 59.5,37.5C 55.8333,48.5 48.5,55.8333 37.5,59.5C 32.1667,59.5 26.8333,59.5 21.5,59.5C 10.5,55.8333 3.16667,48.5 -0.5,37.5C -0.5,32.1667 -0.5,26.8333 -0.5,21.5C 3.16667,10.5 10.5,3.16667 21.5,-0.5 Z"/></g>
<g><path style="opacity:1" fill="#e2ede4" d="M 44.5,36.5 C 41.1667,36.5 37.8333,36.5 34.5,36.5C 30.6528,35.4761 29.6528,33.1428 31.5,29.5C 32.0253,28.8076 32.6919,28.3076 33.5,28C 36.146,27.5026 38.8127,27.3359 41.5,27.5C 41.5,25.8333 41.5,24.1667 41.5,22.5C 32.8333,22.5 24.1667,22.5 15.5,22.5C 15.5,28.8333 15.5,35.1667 15.5,41.5C 24.1667,42.1667 32.8333,42.8333 41.5,43.5C 32.4938,43.6664 23.4938,43.4998 14.5,43C 13.1879,35.8907 13.1879,28.7241 14.5,21.5C 21.8828,17.8062 29.5495,15.8062 37.5,15.5C 38.411,18.5755 40.2443,20.9089 43,22.5C 43.6491,25.9398 44.4824,29.2732 45.5,32.5C 45.4892,34.0451 45.1558,35.3784 44.5,36.5 Z"/></g>
<g><path style="opacity:1" fill="#5d9964" d="M 31.5,16.5 C 35.2407,15.5985 37.2407,16.9319 37.5,20.5C 32.8215,20.6658 28.1548,20.4992 23.5,20C 26.3093,18.9066 28.976,17.7399 31.5,16.5 Z"/></g>
<g><path style="opacity:1" fill="#519259" d="M 34.5,36.5 C 36.6074,37.4682 38.9407,37.8016 41.5,37.5C 41.5,38.8333 41.5,40.1667 41.5,41.5C 32.8333,41.5 24.1667,41.5 15.5,41.5C 15.5,35.1667 15.5,28.8333 15.5,22.5C 24.1667,22.5 32.8333,22.5 41.5,22.5C 41.5,24.1667 41.5,25.8333 41.5,27.5C 38.8127,27.3359 36.146,27.5026 33.5,28C 32.6919,28.3076 32.0253,28.8076 31.5,29.5C 29.6528,33.1428 30.6528,35.4761 34.5,36.5 Z"/></g>
<g><path style="opacity:1" fill="#8bb68f" d="M 19.5,27.5 C 22.1498,28.9369 24.8165,29.6035 27.5,29.5C 26.3047,30.9675 26.3047,32.4675 27.5,34C 26.0308,37.8264 23.8641,38.3264 21,35.5C 20.5078,34.451 20.6744,33.451 21.5,32.5C 20.5435,30.9246 19.8769,29.258 19.5,27.5 Z"/></g>
<g><path style="opacity:1" fill="#619c68" d="M 34.5,28.5 C 37.5184,28.3354 40.5184,28.502 43.5,29C 44.4231,31.0408 44.7564,33.2075 44.5,35.5C 40.8183,35.6653 37.1516,35.4986 33.5,35C 32.1443,32.5859 32.4776,30.4193 34.5,28.5 Z"/></g>
<g><path style="opacity:1" fill="#c4dac7" d="M 35.5,31.5 C 37.337,31.6395 37.6704,32.3061 36.5,33.5C 35.7025,33.0431 35.3691,32.3764 35.5,31.5 Z"/></g>
<g><path style="opacity:1" fill="#b2ceb5" d="M 34.5,36.5 C 37.8333,36.5 41.1667,36.5 44.5,36.5C 44.1128,39.2061 43.1128,41.5395 41.5,43.5C 32.8333,42.8333 24.1667,42.1667 15.5,41.5C 24.1667,41.5 32.8333,41.5 41.5,41.5C 41.5,40.1667 41.5,38.8333 41.5,37.5C 38.9407,37.8016 36.6074,37.4682 34.5,36.5 Z"/></g>
</svg>
