<?xml version="1.0" encoding="UTF-8"?>
<!DOCTYPE svg PUBLIC "-//W3C//DTD SVG 1.1//EN" "http://www.w3.org/Graphics/SVG/1.1/DTD/svg11.dtd">
<svg xmlns="http://www.w3.org/2000/svg" version="1.1" width="32px" height="32px" style="shape-rendering:geometricPrecision; text-rendering:geometricPrecision; image-rendering:optimizeQuality; fill-rule:evenodd; clip-rule:evenodd" xmlns:xlink="http://www.w3.org/1999/xlink">
<g><path style="opacity:0.594" fill="#000000" d="M 9.5,-0.5 C 13.5,-0.5 17.5,-0.5 21.5,-0.5C 25.8333,1.83333 29.1667,5.16667 31.5,9.5C 31.5,13.1667 31.5,16.8333 31.5,20.5C 28.6855,25.9826 24.3522,29.6493 18.5,31.5C 16.8333,31.5 15.1667,31.5 13.5,31.5C 7.09101,30.0952 2.42434,26.4285 -0.5,20.5C -0.5,16.8333 -0.5,13.1667 -0.5,9.5C 1.83333,5.16667 5.16667,1.83333 9.5,-0.5 Z M 11.5,1.5 C 24.6524,0.484813 30.4857,6.48481 29,19.5C 23.7181,28.8296 16.2181,30.9962 6.5,26C 0.270991,19.2748 -0.062342,12.2748 5.5,5C 7.43191,3.5415 9.43191,2.37483 11.5,1.5 Z"/></g>
<g><path style="opacity:0.605" fill="#000000" d="M 13.5,6.5 C 14.8333,6.5 16.1667,6.5 17.5,6.5C 16.1667,23.8333 14.8333,23.8333 13.5,6.5 Z"/></g>
<g><path style="opacity:0.422" fill="#000000" d="M 13.5,20.5 C 14.8333,20.5 16.1667,20.5 17.5,20.5C 17.5,21.5 17.5,22.5 17.5,23.5C 16.1667,23.5 14.8333,23.5 13.5,23.5C 13.5,22.5 13.5,21.5 13.5,20.5 Z"/></g>
</svg>
