<?xml version="1.0" encoding="UTF-8"?>
<!DOCTYPE svg PUBLIC "-//W3C//DTD SVG 1.1//EN" "http://www.w3.org/Graphics/SVG/1.1/DTD/svg11.dtd">
<svg xmlns="http://www.w3.org/2000/svg" version="1.1" width="32px" height="28px" style="shape-rendering:geometricPrecision; text-rendering:geometricPrecision; image-rendering:optimizeQuality; fill-rule:evenodd; clip-rule:evenodd" xmlns:xlink="http://www.w3.org/1999/xlink">
<g><path style="opacity:0.655" fill="#000000" d="M 16.5,-0.5 C 18.8333,-0.5 21.1667,-0.5 23.5,-0.5C 25.3914,2.17173 28.0581,3.17173 31.5,2.5C 31.5,3.5 31.5,4.5 31.5,5.5C 30.2058,6.2899 29.0391,7.2899 28,8.5C 26.0973,17.7108 20.9307,24.0441 12.5,27.5C 8.83333,27.5 5.16667,27.5 1.5,27.5C 1.16667,26.5 0.5,25.8333 -0.5,25.5C -0.5,24.8333 -0.5,24.1667 -0.5,23.5C 1.60887,22.6091 3.60887,21.4424 5.5,20C 3.09757,17.3287 1.09757,14.4954 -0.5,11.5C -0.5,7.83333 -0.5,4.16667 -0.5,0.5C 3.68288,2.7571 8.01621,4.7571 12.5,6.5C 12.5713,3.34772 13.9046,1.01439 16.5,-0.5 Z M 18.5,1.5 C 19.552,1.35055 20.552,1.51722 21.5,2C 22.8782,3.71337 24.5448,5.0467 26.5,6C 24.7447,10.9176 22.4113,15.5843 19.5,20C 15.3405,23.6053 10.6738,25.1053 5.5,24.5C 6.83333,22.8333 8.16667,21.1667 9.5,19.5C 4.33575,15.8382 1.83575,10.8382 2,4.5C 5.83019,7.99937 10.3302,9.66604 15.5,9.5C 14.8285,6.01402 15.8285,3.34735 18.5,1.5 Z"/></g>
</svg>
