<?xml version="1.0" encoding="UTF-8"?>
<!DOCTYPE svg PUBLIC "-//W3C//DTD SVG 1.1//EN" "http://www.w3.org/Graphics/SVG/1.1/DTD/svg11.dtd">
<svg xmlns="http://www.w3.org/2000/svg" version="1.1" width="34px" height="32px" style="shape-rendering:geometricPrecision; text-rendering:geometricPrecision; image-rendering:optimizeQuality; fill-rule:evenodd; clip-rule:evenodd" xmlns:xlink="http://www.w3.org/1999/xlink">
<g><path style="opacity:0.723" fill="#ffd640" d="M 14.5,-0.5 C 15.8333,-0.5 17.1667,-0.5 18.5,-0.5C 19.5075,2.84373 20.5075,6.17706 21.5,9.5C 25.6002,9.23674 29.6002,9.57007 33.5,10.5C 33.5,11.5 33.5,12.5 33.5,13.5C 30.9392,15.3714 28.4392,17.3714 26,19.5C 26.049,22.3446 26.549,25.1779 27.5,28C 27.3517,29.2559 27.0184,30.4226 26.5,31.5C 25.5,31.5 24.5,31.5 23.5,31.5C 21.4099,29.6098 19.0765,27.9431 16.5,26.5C 13.8463,27.836 11.513,29.5026 9.5,31.5C 8.16667,31.5 6.83333,31.5 5.5,31.5C 4.7715,27.5457 5.43816,23.7124 7.5,20C 4.9528,17.946 2.28614,16.1126 -0.5,14.5C -0.5,12.8333 -0.5,11.1667 -0.5,9.5C 3.22605,9.82256 6.89272,9.48922 10.5,8.5C 11.8401,5.47067 13.1734,2.47067 14.5,-0.5 Z M 8.5,27.5 C 8.46612,24.8015 9.13279,22.3015 10.5,20C 8.83333,17 6.5,14.6667 3.5,13C 6.16667,12.6667 8.83333,12.3333 11.5,12C 13.7611,9.22843 15.2611,6.06176 16,2.5C 17.1149,5.89465 18.6149,9.06132 20.5,12C 29.7133,11.3223 30.5466,13.1556 23,17.5C 22.3047,20.9963 22.8047,24.3297 24.5,27.5C 24.3333,27.8333 24.1667,28.1667 24,28.5C 21.589,26.422 18.9223,24.7553 16,23.5C 13.3675,24.644 10.8675,25.9773 8.5,27.5 Z"/></g>
</svg>
