<?xml version="1.0" encoding="UTF-8"?>
<!DOCTYPE svg PUBLIC "-//W3C//DTD SVG 1.1//EN" "http://www.w3.org/Graphics/SVG/1.1/DTD/svg11.dtd">
<svg xmlns="http://www.w3.org/2000/svg" version="1.1" width="34px" height="34px" style="shape-rendering:geometricPrecision; text-rendering:geometricPrecision; image-rendering:optimizeQuality; fill-rule:evenodd; clip-rule:evenodd" xmlns:xlink="http://www.w3.org/1999/xlink">
<g><path style="opacity:0.848" fill="#000000" d="M 1.5,-0.5 C 11.5,-0.5 21.5,-0.5 31.5,-0.5C 31.8333,0.5 32.5,1.16667 33.5,1.5C 33.5,11.5 33.5,21.5 33.5,31.5C 32.5,31.8333 31.8333,32.5 31.5,33.5C 21.5,33.5 11.5,33.5 1.5,33.5C 1.16667,32.5 0.5,31.8333 -0.5,31.5C -0.5,21.5 -0.5,11.5 -0.5,1.5C 0.5,1.16667 1.16667,0.5 1.5,-0.5 Z M 4.5,1.5 C 12.8886,1.1968 21.222,1.53013 29.5,2.5C 30.1924,3.02527 30.6924,3.69194 31,4.5C 31.6667,8.5 31.6667,12.5 31,16.5C 27.2741,13.7993 23.7741,14.1326 20.5,17.5C 18.3411,15.0053 15.6745,13.3386 12.5,12.5C 8.31547,14.174 4.81547,16.8407 2,20.5C 1.33333,15.1667 1.33333,9.83333 2,4.5C 2.69794,3.30943 3.53128,2.30943 4.5,1.5 Z M 11.5,15.5 C 14.8991,17.3883 17.8991,19.8883 20.5,23C 15.1667,23.6667 9.83333,23.6667 4.5,23C 7.03856,20.6303 9.3719,18.1303 11.5,15.5 Z M 25.5,17.5 C 26.7562,17.4614 27.7562,17.9614 28.5,19C 27.1667,19.6667 25.8333,19.6667 24.5,19C 25.056,18.6174 25.3893,18.1174 25.5,17.5 Z M 24.5,22.5 C 26.6074,21.5318 28.9407,21.1984 31.5,21.5C 31.6633,23.8568 31.4966,26.1902 31,28.5C 30.5,29.6667 29.6667,30.5 28.5,31C 20.5,31.6667 12.5,31.6667 4.5,31C 2.3291,29.8261 1.3291,27.9928 1.5,25.5C 9.5,25.5 17.5,25.5 25.5,25.5C 25.7373,24.209 25.404,23.209 24.5,22.5 Z"/></g>
<g><path style="opacity:0.875" fill="#000000" d="M 19.5,7.5 C 21.337,7.63945 21.6704,8.30612 20.5,9.5C 19.7025,9.04311 19.3691,8.37644 19.5,7.5 Z"/></g>
</svg>
