<?xml version="1.0" encoding="UTF-8"?>
<!DOCTYPE svg PUBLIC "-//W3C//DTD SVG 1.1//EN" "http://www.w3.org/Graphics/SVG/1.1/DTD/svg11.dtd">
<svg xmlns="http://www.w3.org/2000/svg" version="1.1" width="32px" height="30px" style="shape-rendering:geometricPrecision; text-rendering:geometricPrecision; image-rendering:optimizeQuality; fill-rule:evenodd; clip-rule:evenodd" xmlns:xlink="http://www.w3.org/1999/xlink">
<g><path style="opacity:0.695" fill="#000000" d="M 17.5,-0.5 C 19.5,-0.5 21.5,-0.5 23.5,-0.5C 24.7298,1.29719 25.3964,3.29719 25.5,5.5C 26.8221,5.33003 27.9887,5.66337 29,6.5C 29.0023,9.05119 29.8356,11.0512 31.5,12.5C 31.5,15.5 31.5,18.5 31.5,21.5C 29.9496,23.3002 28.9496,25.4668 28.5,28C 18.8391,28.4998 9.17241,28.6665 -0.5,28.5C -0.5,21.1667 -0.5,13.8333 -0.5,6.5C 5.57059,4.14691 11.5706,1.81358 17.5,-0.5 Z M 19.5,1.5 C 20.5,1.5 21.5,1.5 22.5,1.5C 22.33,2.82207 22.6634,3.98873 23.5,5C 19.1667,5.66667 14.8333,5.66667 10.5,5C 13.7177,4.09968 16.7177,2.93301 19.5,1.5 Z M 1.5,7.5 C 9.83999,7.3336 18.1733,7.50027 26.5,8C 27.3802,9.35613 27.7135,10.8561 27.5,12.5C 24.4816,12.3354 21.4816,12.502 18.5,13C 15.887,15.7953 15.887,18.6286 18.5,21.5C 21.4212,22.4066 24.4212,22.7399 27.5,22.5C 27.5,23.8333 27.5,25.1667 27.5,26.5C 18.8333,26.5 10.1667,26.5 1.5,26.5C 1.5,20.1667 1.5,13.8333 1.5,7.5 Z M 19.5,14.5 C 22.8333,14.5 26.1667,14.5 29.5,14.5C 29.5,16.5 29.5,18.5 29.5,20.5C 26.0217,20.8158 22.6883,20.3158 19.5,19C 18.5868,17.5861 18.5868,16.0861 19.5,14.5 Z M 9.5,17.5 C 10.7562,17.4614 11.7562,17.9614 12.5,19C 10.8333,19.6667 9.16667,19.6667 7.5,19C 8.4158,18.7216 9.08247,18.2216 9.5,17.5 Z"/></g>
<g><path style="opacity:0.345" fill="#000000" d="M 5.5,12.5 C 7.93934,13.0525 10.2727,13.0525 12.5,12.5C 12.8333,13.1667 13.1667,13.8333 13.5,14.5C 12.8477,16.4049 12.6811,18.4049 13,20.5C 12,21.5 11,22.5 10,23.5C 7.0517,21.9571 6.21836,19.7905 7.5,17C 6.41782,15.6703 5.75115,14.1703 5.5,12.5 Z M 9.5,17.5 C 9.08247,18.2216 8.4158,18.7216 7.5,19C 9.16667,19.6667 10.8333,19.6667 12.5,19C 11.7562,17.9614 10.7562,17.4614 9.5,17.5 Z"/></g>
<g><path style="opacity:0.517" fill="#000000" d="M 20.5,16.5 C 21.9778,16.238 23.3112,16.5713 24.5,17.5C 23.8333,17.8333 23.1667,18.1667 22.5,18.5C 21.2867,18.2528 20.62,17.5862 20.5,16.5 Z"/></g>
</svg>
