<svg width="123" height="33" viewBox="0 0 123 33" fill="#519259" xmlns="http://www.w3.org/2000/svg">
<path d="M0.824688 20.8711C0.824688 19.9831 0.910625 18.9948 1.0825 17.9062C1.28302 16.7891 1.56948 15.6719 1.94188 14.5547C2.31427 13.4089 2.7726 12.306 3.31688 11.2461C3.88979 10.1576 4.53432 9.19792 5.25047 8.36719C5.99526 7.50781 6.82599 6.82031 7.74266 6.30469C8.68797 5.78906 9.71922 5.53125 10.8364 5.53125C11.6385 5.53125 12.3117 5.6888 12.8559 6.00391C13.4289 6.31901 13.8872 6.73438 14.2309 7.25C14.5747 7.76562 14.8182 8.35286 14.9614 9.01172C15.1333 9.64193 15.2192 10.2865 15.2192 10.9453C14.589 10.9453 14.1164 10.7591 13.8013 10.3867C13.4861 9.98568 13.1854 9.55599 12.8989 9.09766C12.6411 8.61068 12.326 8.18099 11.9536 7.80859C11.6098 7.40755 11.0799 7.20703 10.3638 7.20703C9.41844 7.20703 8.57339 7.46484 7.82859 7.98047C7.11245 8.49609 6.48224 9.16927 5.93797 10C5.3937 10.8021 4.93537 11.7188 4.56297 12.75C4.21922 13.7812 3.93276 14.8125 3.70359 15.8438C3.50307 16.875 3.35984 17.8776 3.27391 18.8516C3.18797 19.7969 3.145 20.599 3.145 21.2578C3.03042 22.2318 3.01609 23.2487 3.10203 24.3086C3.21662 25.3398 3.4601 26.2995 3.8325 27.1875C4.2049 28.0469 4.74917 28.7773 5.46531 29.3789C6.18146 29.9518 7.12677 30.2812 8.30125 30.3672C9.04604 30.3672 9.87677 30.2526 10.7934 30.0234C11.7101 29.7656 12.6124 29.4792 13.5005 29.1641C14.4171 28.8203 15.2908 28.4622 16.1216 28.0898C16.9523 27.6888 17.6541 27.3451 18.227 27.0586V28.7344C18.1984 28.7344 18.0122 28.806 17.6684 28.9492C17.3533 29.0638 16.9236 29.2214 16.3794 29.4219C15.8638 29.6224 15.2622 29.8372 14.5747 30.0664C13.9158 30.2956 13.257 30.5391 12.5981 30.7969C11.9393 31.026 11.2947 31.2552 10.6645 31.4844C10.063 31.6849 9.54734 31.8568 9.11766 32C9.08901 32 9.03172 32 8.94578 32C8.85984 32.0286 8.78823 32.043 8.73094 32.043C7.15542 32.043 5.85203 31.7135 4.82078 31.0547C3.81818 30.3672 3.01609 29.4935 2.41453 28.4336C1.81297 27.3451 1.3976 26.1419 1.16844 24.8242C0.939271 23.4779 0.824688 22.1602 0.824688 20.8711ZM19.8117 24.1367C19.8117 23.4779 19.869 22.7188 19.9836 21.8594C20.0982 20.9714 20.2844 20.0833 20.5422 19.1953C20.8 18.3073 21.1151 17.4336 21.4875 16.5742C21.8885 15.7148 22.3612 14.9557 22.9055 14.2969C23.4497 13.6094 24.0799 13.0651 24.7961 12.6641C25.5122 12.2344 26.3143 12.0195 27.2023 12.0195C28.119 12.0195 28.9641 12.3346 29.7375 12.9648C30.5396 13.5951 31.2128 14.4115 31.757 15.4141C32.3299 16.4167 32.7596 17.5339 33.0461 18.7656C33.3326 19.9974 33.4471 21.2005 33.3898 22.375C33.3898 24.0938 33.0604 25.6263 32.4016 26.9727C31.7427 28.319 30.8977 29.4076 29.8664 30.2383C28.8638 31.069 27.7753 31.6276 26.6008 31.9141C25.4549 32.2005 24.3664 32.1289 23.3352 31.6992C22.3326 31.2409 21.4875 30.3958 20.8 29.1641C20.1411 27.9323 19.8117 26.2565 19.8117 24.1367ZM21.4016 24.3086C21.4875 26.056 21.7883 27.4023 22.3039 28.3477C22.8195 29.293 23.4354 29.9232 24.1516 30.2383C24.8964 30.5247 25.6984 30.5247 26.5578 30.2383C27.4172 29.9518 28.2193 29.4505 28.9641 28.7344C29.7089 27.9896 30.3391 27.0729 30.8547 25.9844C31.399 24.8672 31.6997 23.6211 31.757 22.2461C31.8143 21.2148 31.7284 20.2122 31.4992 19.2383C31.2987 18.2643 30.9979 17.4049 30.5969 16.6602C30.2245 15.8867 29.7518 15.2852 29.1789 14.8555C28.6346 14.3971 28.0044 14.168 27.2883 14.168C26.6008 14.168 25.9849 14.3398 25.4406 14.6836C24.8964 15.0273 24.3951 15.5 23.9367 16.1016C23.507 16.6745 23.1346 17.3333 22.8195 18.0781C22.5044 18.8229 22.2323 19.5677 22.0031 20.3125C21.8026 21.0573 21.6451 21.7878 21.5305 22.5039C21.4445 23.1914 21.4016 23.793 21.4016 24.3086ZM35.5331 24.1367C35.5331 23.4779 35.5904 22.7188 35.705 21.8594C35.8196 20.9714 36.0058 20.0833 36.2636 19.1953C36.5214 18.3073 36.8365 17.4336 37.2089 16.5742C37.6099 15.7148 38.0826 14.9557 38.6269 14.2969C39.1711 13.6094 39.8014 13.0651 40.5175 12.6641C41.2336 12.2344 42.0357 12.0195 42.9238 12.0195C43.8404 12.0195 44.6855 12.3346 45.4589 12.9648C46.261 13.5951 46.9342 14.4115 47.4784 15.4141C48.0514 16.4167 48.481 17.5339 48.7675 18.7656C49.054 19.9974 49.1685 21.2005 49.1113 22.375C49.1113 24.0938 48.7818 25.6263 48.123 26.9727C47.4641 28.319 46.6191 29.4076 45.5878 30.2383C44.5852 31.069 43.4967 31.6276 42.3222 31.9141C41.1764 32.2005 40.0878 32.1289 39.0566 31.6992C38.054 31.2409 37.2089 30.3958 36.5214 29.1641C35.8626 27.9323 35.5331 26.2565 35.5331 24.1367ZM37.123 24.3086C37.2089 26.056 37.5097 27.4023 38.0253 28.3477C38.5409 29.293 39.1568 29.9232 39.873 30.2383C40.6178 30.5247 41.4198 30.5247 42.2792 30.2383C43.1386 29.9518 43.9407 29.4505 44.6855 28.7344C45.4303 27.9896 46.0605 27.0729 46.5761 25.9844C47.1204 24.8672 47.4211 23.6211 47.4784 22.2461C47.5357 21.2148 47.4498 20.2122 47.2206 19.2383C47.0201 18.2643 46.7193 17.4049 46.3183 16.6602C45.9459 15.8867 45.4732 15.2852 44.9003 14.8555C44.356 14.3971 43.7258 14.168 43.0097 14.168C42.3222 14.168 41.7063 14.3398 41.162 14.6836C40.6178 15.0273 40.1165 15.5 39.6581 16.1016C39.2284 16.6745 38.856 17.3333 38.5409 18.0781C38.2258 18.8229 37.9537 19.5677 37.7245 20.3125C37.524 21.0573 37.3665 21.7878 37.2519 22.5039C37.1659 23.1914 37.123 23.793 37.123 24.3086ZM52.6295 30.8398C52.6009 30.2383 52.5293 29.3216 52.4147 28.0898C52.3288 26.8294 52.2285 25.4258 52.1139 23.8789C51.9993 22.3034 51.8847 20.6419 51.7702 18.8945C51.6556 17.1471 51.541 15.5 51.4264 13.9531C51.3405 12.3776 51.2545 10.974 51.1686 9.74219C51.0827 8.48177 51.0254 7.55078 50.9967 6.94922C50.9681 6.69141 50.9394 6.2474 50.9108 5.61719C50.9108 4.95833 50.8965 4.27083 50.8678 3.55469C50.8392 2.8099 50.8105 2.1224 50.7819 1.49219C50.7819 0.833333 50.7819 0.375 50.7819 0.117188C51.1829 0.117188 51.541 0.203125 51.8561 0.375C52.1712 0.518229 52.429 0.776042 52.6295 1.14844C52.6868 1.75 52.7441 2.60938 52.8014 3.72656C52.8873 4.8151 52.9733 6.07552 53.0592 7.50781C53.1452 8.9401 53.2311 10.4727 53.317 12.1055C53.4316 13.7383 53.5319 15.3568 53.6178 16.9609C53.7038 16.8177 53.7897 16.6888 53.8756 16.5742C53.9616 16.4596 54.0189 16.388 54.0475 16.3594C54.3626 16.0156 54.735 15.6146 55.1647 15.1562C55.5944 14.6979 56.0384 14.2253 56.4967 13.7383C56.9837 13.2513 57.4564 12.7786 57.9147 12.3203C58.4017 11.8333 58.8314 11.4036 59.2038 11.0312C59.6048 10.6302 59.9342 10.3151 60.192 10.0859C60.4498 9.85677 60.6074 9.74219 60.6647 9.74219L62.2975 10.5586C61.8105 10.9883 61.2519 11.4896 60.6217 12.0625C59.9915 12.6354 59.3756 13.2513 58.7741 13.9102C58.1725 14.5404 57.5853 15.2135 57.0123 15.9297C56.4681 16.6172 56.0241 17.3047 55.6803 17.9922C55.6803 18.0208 55.666 18.0924 55.6373 18.207C55.6373 18.293 55.6373 18.3646 55.6373 18.4219C55.6373 18.4505 55.6373 18.5221 55.6373 18.6367C55.666 18.7227 55.6803 18.7799 55.6803 18.8086L65.6061 30.3672C65.6061 30.3958 65.6061 30.4531 65.6061 30.5391C65.6347 30.625 65.6491 30.6966 65.6491 30.7539C65.6491 31.2982 65.3626 31.7135 64.7897 32L54.0475 19.625C54.0189 19.5964 53.9759 19.5534 53.9186 19.4961C53.8899 19.4102 53.847 19.3242 53.7897 19.2383L54.2623 27.5742C54.2623 27.7174 54.2623 27.9896 54.2623 28.3906C54.291 28.7917 54.3053 29.2357 54.3053 29.7227C54.334 30.181 54.3483 30.625 54.3483 31.0547C54.3769 31.4557 54.3913 31.7279 54.3913 31.8711C54.0189 31.8711 53.6751 31.7995 53.36 31.6562C53.0449 31.4844 52.8014 31.2122 52.6295 30.8398ZM67.2337 2.30859C67.2337 2.16536 67.3483 1.99349 67.5775 1.79297C67.8067 1.59245 67.9785 1.49219 68.0931 1.49219C68.8093 1.95052 69.2676 2.56641 69.4681 3.33984C69.6686 4.08464 69.7689 4.85807 69.7689 5.66016C69.7689 5.83203 69.7689 6.04688 69.7689 6.30469C69.7976 6.53385 69.7976 6.77734 69.7689 7.03516C69.7403 7.26432 69.6543 7.47917 69.5111 7.67969C69.3965 7.88021 69.196 8.02344 68.9095 8.10938C68.6804 8.02344 68.4655 7.70833 68.265 7.16406C68.0645 6.61979 67.8783 6.01823 67.7064 5.35938C67.5632 4.70052 67.4486 4.07031 67.3627 3.46875C67.2767 2.86719 67.2337 2.48047 67.2337 2.30859ZM70.9239 8.88281C71.3822 8.22396 71.9838 7.66536 72.7286 7.20703C73.502 6.72005 74.3471 6.31901 75.2637 6.00391C76.2091 5.6888 77.2117 5.44531 78.2716 5.27344C79.3601 5.10156 80.42 4.97266 81.4512 4.88672C82.4825 4.80078 83.4851 4.74349 84.4591 4.71484C85.433 4.6862 86.2924 4.67188 87.0372 4.67188C87.0945 4.67188 87.2234 4.6862 87.4239 4.71484C87.6244 4.71484 87.8393 4.72917 88.0684 4.75781C88.2976 4.75781 88.4981 4.75781 88.67 4.75781C88.8705 4.75781 89.0137 4.75781 89.0997 4.75781C89.2143 5.38802 89.1427 5.83203 88.8848 6.08984C88.6557 6.31901 88.3406 6.46224 87.9395 6.51953C87.5671 6.54818 87.1661 6.53385 86.7364 6.47656C86.3067 6.39062 85.9916 6.3763 85.7911 6.43359C85.5046 6.46224 85.0463 6.54818 84.4161 6.69141C83.8145 6.80599 83.1414 6.94922 82.3966 7.12109C81.6518 7.26432 80.8497 7.4362 79.9903 7.63672C79.1596 7.80859 78.3575 7.98047 77.5841 8.15234C76.8393 8.29557 76.1661 8.4388 75.5645 8.58203C74.963 8.72526 74.519 8.82552 74.2325 8.88281C73.7742 9.05469 73.5164 9.26953 73.4591 9.52734C73.4018 9.78516 73.3731 10.0859 73.3731 10.4297C73.3731 11.0312 73.4018 11.7044 73.4591 12.4492C73.545 13.194 73.6309 13.9388 73.7169 14.6836C73.8315 15.3997 73.9317 16.0586 74.0177 16.6602C74.1322 17.2617 74.2039 17.7057 74.2325 17.9922C74.3471 18.0208 74.5619 18.0352 74.877 18.0352C75.1921 18.0352 75.407 18.0352 75.5216 18.0352C76.1804 18.0352 76.8249 17.9779 77.4552 17.8633C78.0854 17.7487 78.7156 17.6198 79.3458 17.4766C79.976 17.3333 80.6205 17.2188 81.2794 17.1328C81.9382 17.0182 82.6114 16.9609 83.2989 16.9609V18.5508C83.0124 18.5508 82.6114 18.5794 82.0958 18.6367C81.5802 18.6654 81.0072 18.737 80.377 18.8516C79.7755 18.9661 79.1596 19.0951 78.5294 19.2383C77.8992 19.3529 77.3262 19.4818 76.8106 19.625C76.295 19.7682 75.8653 19.9115 75.5216 20.0547C75.2065 20.1979 75.0489 20.3411 75.0489 20.4844V29.4219C76.3953 29.4219 77.7273 29.3789 79.045 29.293C80.3914 29.207 81.7377 29.1211 83.0841 29.0352C84.4304 28.9206 85.7768 28.8203 87.1231 28.7344C88.4695 28.6484 89.8158 28.6055 91.1622 28.6055C91.1622 28.9492 91.0476 29.2357 90.8184 29.4648C90.5893 29.6654 90.3171 29.8372 90.002 29.9805C89.7156 30.0951 89.4005 30.181 89.0567 30.2383C88.713 30.2956 88.4552 30.3385 88.2833 30.3672C88.1687 30.3958 87.8106 30.4388 87.2091 30.4961C86.6075 30.5534 85.8627 30.6393 84.9747 30.7539C84.0867 30.8685 83.0984 30.9831 82.0098 31.0977C80.9213 31.2122 79.8471 31.3268 78.7872 31.4414C77.7273 31.556 76.7247 31.6706 75.7794 31.7852C74.8341 31.8711 74.0463 31.9427 73.4161 32C73.3302 32.0286 73.2012 32.043 73.0294 32.043C73.0294 28.2044 72.9005 24.3372 72.6427 20.4414C72.4135 16.5169 71.8406 12.6641 70.9239 8.88281ZM92.575 28.3047C92.575 26.6719 93.019 25.4831 93.907 24.7383C94.8237 23.9935 96.0125 23.6211 97.4734 23.6211C98.0464 23.6211 98.5763 23.6354 99.0633 23.6641C99.5789 23.6927 100.066 23.7643 100.524 23.8789C100.983 23.9935 101.427 24.1654 101.856 24.3945C102.315 24.6237 102.787 24.9531 103.274 25.3828C103.274 25.2969 103.274 25.125 103.274 24.8672C103.303 24.5807 103.317 24.2799 103.317 23.9648C103.317 23.6497 103.317 23.3633 103.317 23.1055C103.317 22.819 103.317 22.6185 103.317 22.5039C103.289 21.9883 103.274 21.3294 103.274 20.5273C103.274 19.6966 103.203 18.8516 103.059 17.9922C102.945 17.1328 102.687 16.3164 102.286 15.543C101.914 14.7695 101.298 14.1823 100.438 13.7812C99.8367 13.7812 99.2781 13.8815 98.7625 14.082C98.2469 14.2826 97.7312 14.4974 97.2156 14.7266C96.7 14.9557 96.1844 15.1706 95.6687 15.3711C95.1531 15.543 94.5945 15.6289 93.993 15.6289C93.993 14.9128 94.2078 14.3255 94.6375 13.8672C95.0958 13.3802 95.6401 13.0078 96.2703 12.75C96.9005 12.4922 97.5594 12.3203 98.2469 12.2344C98.9344 12.1484 99.5359 12.1055 100.052 12.1055C100.567 12.1914 101.04 12.2917 101.47 12.4062C101.928 12.5208 102.343 12.75 102.716 13.0938C103.117 13.4375 103.475 13.9674 103.79 14.6836C104.134 15.3711 104.42 16.3451 104.649 17.6055C104.907 18.8659 105.122 20.4701 105.294 22.418C105.494 24.3372 105.652 26.7005 105.766 29.5078C105.824 29.8802 105.695 30.2096 105.38 30.4961C105.093 30.7539 104.692 30.9831 104.177 31.1836C103.661 31.3555 103.074 31.513 102.415 31.6562C101.785 31.7708 101.14 31.8568 100.481 31.9141C99.8224 31.9714 99.1922 32.0143 98.5906 32.043C97.9891 32.0716 97.4878 32.0859 97.0867 32.0859C96.5711 32.0859 96.0411 32 95.4969 31.8281C94.9812 31.6562 94.4943 31.4128 94.0359 31.0977C93.6062 30.7539 93.2482 30.3529 92.9617 29.8945C92.7039 29.4076 92.575 28.8776 92.575 28.3047ZM98.1609 25.2969C96.7286 25.6979 95.726 26.1849 95.1531 26.7578C94.5802 27.3021 94.3224 27.832 94.3797 28.3477C94.4656 28.8633 94.8094 29.3359 95.4109 29.7656C96.0125 30.1667 96.743 30.4388 97.6023 30.582C98.4617 30.6966 99.3927 30.625 100.395 30.3672C101.398 30.0807 102.358 29.5365 103.274 28.7344C102.93 27.9036 102.587 27.2734 102.243 26.8438C101.899 26.3854 101.527 26.0417 101.126 25.8125C100.725 25.5833 100.281 25.4401 99.7937 25.3828C99.3068 25.3255 98.7625 25.2969 98.1609 25.2969ZM112.507 16.4023C112.25 16.3164 111.891 16.2878 111.433 16.3164C111.003 16.3164 110.531 16.3451 110.015 16.4023C109.528 16.431 109.056 16.474 108.597 16.5312C108.139 16.5885 107.752 16.6172 107.437 16.6172C107.294 16.6172 107.194 16.4167 107.136 16.0156C107.108 15.5859 107.05 15.013 106.964 14.2969L113.023 13.8672C113.109 12.8646 113.166 12.1484 113.195 11.7188C113.223 11.2891 113.223 10.931 113.195 10.6445C113.195 10.3294 113.181 9.98568 113.152 9.61328C113.152 9.21224 113.152 8.59635 113.152 7.76562C113.897 7.65104 114.455 7.6224 114.828 7.67969C115.229 7.70833 115.501 7.80859 115.644 7.98047C115.787 8.15234 115.845 8.41016 115.816 8.75391C115.816 9.06901 115.773 9.47005 115.687 9.95703C115.63 10.444 115.572 11.0312 115.515 11.7188C115.487 12.4062 115.515 13.1797 115.601 14.0391L120.757 13.8672V15.9727C120.528 15.9727 120.17 15.987 119.683 16.0156C119.196 16.0443 118.666 16.0729 118.093 16.1016C117.549 16.1302 117.033 16.1589 116.546 16.1875C116.088 16.2161 115.744 16.2734 115.515 16.3594C115.286 17.3906 115.042 18.4935 114.785 19.668C114.527 20.8424 114.355 22.0026 114.269 23.1484C114.183 24.2943 114.212 25.3685 114.355 26.3711C114.498 27.3451 114.856 28.1615 115.429 28.8203C116.002 29.4505 116.819 29.8945 117.878 30.1523C118.938 30.3815 120.342 30.2956 122.089 29.8945C122.032 30.3242 121.86 30.6823 121.574 30.9688C121.316 31.2266 121.001 31.4414 120.628 31.6133C120.285 31.7565 119.912 31.8711 119.511 31.957C119.11 32.0143 118.752 32.043 118.437 32.043C116.976 32.043 115.816 31.7852 114.957 31.2695C114.097 30.7253 113.453 30.0234 113.023 29.1641C112.593 28.3047 112.321 27.3307 112.207 26.2422C112.092 25.125 112.049 23.9935 112.078 22.8477C112.135 21.7018 112.221 20.5703 112.335 19.4531C112.45 18.3359 112.507 17.319 112.507 16.4023Z"/>
</svg>
