<svg width="34" height="36" viewBox="0 0 34 36" fill="none" xmlns="http://www.w3.org/2000/svg">
<path d="M27.9471 11.6371C29.2872 11.6371 30.5723 11.0767 31.5198 10.0793C32.4674 9.08188 32.9997 7.72909 32.9997 6.31853C32.9997 4.90797 32.4674 3.55518 31.5198 2.55776C30.5723 1.56034 29.2872 1 27.9471 1C26.6071 1 25.3219 1.56034 24.3744 2.55776C23.4269 3.55518 22.8945 4.90797 22.8945 6.31853C22.8945 7.72909 23.4269 9.08188 24.3744 10.0793C25.3219 11.0767 26.6071 11.6371 27.9471 11.6371Z" fill="#FF0000" stroke="#FF0000" stroke-width="1.5" stroke-linecap="round" stroke-linejoin="round"/>
<path d="M31.3156 18.7286V24.0472C31.3156 26.8683 30.2509 29.5739 28.3558 31.5687C26.4607 33.5636 23.8904 34.6843 21.2104 34.6843H11.1052C8.42513 34.6843 5.85483 33.5636 3.95974 31.5687C2.06465 29.5739 1 26.8683 1 24.0472V13.4101C1 10.5889 2.06465 7.88333 3.95974 5.88849C5.85483 3.89364 8.42513 2.77295 11.1052 2.77295H16.1578" stroke="#519259" stroke-width="1.5" stroke-linecap="round" stroke-linejoin="round"/>
</svg>
