<svg width="18" height="18" viewBox="0 0 18 18" fill="none" xmlns="http://www.w3.org/2000/svg">
<path d="M7.39063 14.7816C3.29736 14.7816 0 11.4842 0 7.39081C0 3.29744 3.29736 0 7.39063 0C11.4839 0 14.7813 3.29744 14.7813 7.39081C14.7813 11.4842 11.4839 14.7816 7.39063 14.7816ZM7.39063 1.13705C3.92272 1.13705 1.13702 3.92282 1.13702 7.39081C1.13702 10.8588 3.92272 13.6446 7.39063 13.6446C10.8585 13.6446 13.6442 10.8588 13.6442 7.39081C13.6442 3.92282 10.8585 1.13705 7.39063 1.13705Z" fill="#519259"/>
<path d="M12.8947 12.0908L17.9999 17.1962L17.196 18.0001L12.0908 12.8947L12.8947 12.0908Z" fill="#519259"/>
</svg>
