<svg width="32" height="34" viewBox="0 0 32 34" fill="#519259" xmlns="http://www.w3.org/2000/svg">
<path d="M0.0474682 11.6035C0.775524 9.35383 1.97181 7.28385 3.55759 5.52984C3.68872 5.38493 3.85996 5.28225 4.04955 5.23485C4.23915 5.18745 4.43856 5.19747 4.62246 5.26363L8.40471 6.6164C8.67397 6.71255 8.96092 6.749 9.24566 6.72322C9.53041 6.69744 9.80614 6.61006 10.0538 6.46711C10.3014 6.32417 10.5149 6.1291 10.6797 5.89541C10.8444 5.66172 10.9563 5.39501 11.0077 5.11375L11.7295 1.15797C11.7643 0.9654 11.8557 0.787563 11.992 0.647095C12.1282 0.506626 12.3032 0.40988 12.4946 0.369174C14.8055 -0.123058 17.1941 -0.123058 19.505 0.369174C19.696 0.410228 19.8706 0.507127 20.0065 0.647569C20.1423 0.788011 20.2334 0.965661 20.2681 1.15797L20.9919 5.11375C21.0432 5.39501 21.1552 5.66172 21.3199 5.89541C21.4846 6.1291 21.6982 6.32417 21.9458 6.46711C22.1934 6.61006 22.4692 6.69744 22.7539 6.72322C23.0387 6.749 23.3256 6.71255 23.5949 6.6164L27.3771 5.26363C27.5612 5.1977 27.7607 5.188 27.9503 5.23576C28.14 5.28351 28.3111 5.38656 28.442 5.53181C30.0275 7.28524 31.2238 9.35454 31.9521 11.6035C32.0122 11.7893 32.0158 11.9887 31.9625 12.1766C31.9091 12.3644 31.8012 12.5321 31.6524 12.6585L28.5859 15.2616C28.3681 15.4467 28.1931 15.6769 28.0731 15.9364C27.9531 16.1959 27.891 16.4783 27.891 16.7642C27.891 17.0501 27.9531 17.3325 28.0731 17.592C28.1931 17.8515 28.3681 18.0817 28.5859 18.2669L31.6524 20.8699C31.8012 20.9963 31.9091 21.164 31.9625 21.3518C32.0158 21.5397 32.0122 21.7391 31.9521 21.9249C31.2241 24.1746 30.0278 26.2446 28.442 27.9986C28.3109 28.1435 28.1396 28.2462 27.95 28.2936C27.7604 28.341 27.561 28.3309 27.3771 28.2648L23.5949 26.912C23.3256 26.8159 23.0387 26.7794 22.7539 26.8052C22.4692 26.831 22.1934 26.9184 21.9458 27.0613C21.6982 27.2042 21.4846 27.3993 21.3199 27.633C21.1552 27.8667 21.0432 28.1334 20.9919 28.4147L20.2681 32.3724C20.2331 32.5644 20.1418 32.7416 20.006 32.8816C19.8701 33.0217 19.6958 33.1183 19.505 33.1592C17.1941 33.6516 14.8055 33.6516 12.4946 33.1592C12.3032 33.1185 12.1282 33.0218 11.992 32.8813C11.8557 32.7408 11.7643 32.563 11.7295 32.3704L11.0097 28.4147C10.9583 28.1334 10.8464 27.8667 10.6816 27.633C10.5169 27.3993 10.3033 27.2042 10.0557 27.0613C9.80812 26.9184 9.53238 26.831 9.24763 26.8052C8.96289 26.7794 8.67594 26.8159 8.40668 26.912L4.62246 28.2648C4.43837 28.3307 4.23884 28.3404 4.04923 28.2927C3.85962 28.2449 3.68849 28.1418 3.55759 27.9966C1.97201 26.2432 0.775722 24.1739 0.0474682 21.9249C-0.0124193 21.7389 -0.0157133 21.5394 0.038004 21.3515C0.0917212 21.1637 0.200028 20.996 0.349181 20.8699L3.41364 18.2669C3.63147 18.0817 3.80645 17.8515 3.92645 17.592C4.04645 17.3325 4.10861 17.0501 4.10861 16.7642C4.10861 16.4783 4.04645 16.1959 3.92645 15.9364C3.80645 15.6769 3.63147 15.4467 3.41364 15.2616L0.349181 12.6585C0.200028 12.5324 0.0917212 12.3647 0.038004 12.1769C-0.0157133 11.9891 -0.0124193 11.7895 0.0474682 11.6035ZM2.13974 11.5917L4.69148 13.7569C5.12782 14.1272 5.47837 14.5879 5.71879 15.1072C5.95921 15.6265 6.08374 16.1919 6.08374 16.7642C6.08374 17.3365 5.95921 17.9019 5.71879 18.4212C5.47837 18.9405 5.12782 19.4012 4.69148 19.7715L2.13777 21.9367C2.71358 23.4788 3.54576 24.9144 4.59288 26.1804L7.74016 25.0564C8.27881 24.8641 8.85285 24.7912 9.42245 24.8429C9.99206 24.8946 10.5436 25.0695 11.0389 25.3556C11.5341 25.6417 11.9612 26.0321 12.2906 26.4997C12.6199 26.9673 12.8436 27.501 12.9462 28.0636L13.5476 31.3529C15.1699 31.6233 16.8257 31.6233 18.448 31.3529L19.0495 28.0597C19.1516 27.4969 19.3751 26.963 19.7044 26.4953C20.0337 26.0275 20.4609 25.6371 20.9563 25.3511C21.4517 25.0651 22.0035 24.8904 22.5732 24.8392C23.1429 24.788 23.717 24.8614 24.2555 25.0544L27.4047 26.1804C28.4537 24.9124 29.2835 23.4781 29.8598 21.9367L27.3081 19.7715C26.8712 19.4016 26.5201 18.941 26.2792 18.4216C26.0384 17.9023 25.9137 17.3367 25.9137 16.7642C25.9137 16.1917 26.0384 15.6261 26.2792 15.1068C26.5201 14.5874 26.8712 14.1268 27.3081 13.7569L29.8598 11.5917C29.2836 10.0503 28.4538 8.61594 27.4047 7.34801L24.2574 8.47203C23.7189 8.66433 23.145 8.73723 22.5755 8.68567C22.0061 8.63412 21.4546 8.45934 20.9594 8.17346C20.4641 7.88758 20.037 7.49743 19.7075 7.03005C19.3781 6.56267 19.1542 6.02924 19.0514 5.46674L18.448 2.17551C16.8257 1.90503 15.1699 1.90503 13.5476 2.17551L12.9482 5.46674C12.8457 6.02966 12.6219 6.56353 12.2924 7.03133C11.963 7.49912 11.5357 7.88962 11.0402 8.17574C10.5447 8.46185 9.99285 8.63673 9.42301 8.68824C8.85316 8.73974 8.27892 8.66664 7.74016 8.47401L4.59288 7.34801C3.54384 8.61594 2.71404 10.0503 2.13777 11.5917H2.13974ZM11.0708 16.7642C11.0708 15.4567 11.5902 14.2027 12.5148 13.2782C13.4393 12.3537 14.6933 11.8343 16.0008 11.8343C17.3083 11.8343 18.5622 12.3537 19.4868 13.2782C20.4113 14.2027 20.9307 15.4567 20.9307 16.7642C20.9307 18.0717 20.4113 19.3257 19.4868 20.2502C18.5622 21.1747 17.3083 21.6941 16.0008 21.6941C14.6933 21.6941 13.4393 21.1747 12.5148 20.2502C11.5902 19.3257 11.0708 18.0717 11.0708 16.7642ZM13.0428 16.7642C13.0428 17.5487 13.3544 18.3011 13.9092 18.8558C14.4639 19.4105 15.2163 19.7222 16.0008 19.7222C16.7853 19.7222 17.5376 19.4105 18.0924 18.8558C18.6471 18.3011 18.9587 17.5487 18.9587 16.7642C18.9587 15.9797 18.6471 15.2273 18.0924 14.6726C17.5376 14.1179 16.7853 13.8062 16.0008 13.8062C15.2163 13.8062 14.4639 14.1179 13.9092 14.6726C13.3544 15.2273 13.0428 15.9797 13.0428 16.7642Z"/>
</svg>
