<svg width="25" height="25" viewBox="0 0 25 25" fill="none" xmlns="http://www.w3.org/2000/svg">
<path d="M12.25 24.5C9.82718 24.5 7.45877 23.7816 5.44427 22.4355C3.42977 21.0895 1.85965 19.1763 0.932481 16.9379C0.00530772 14.6995 -0.237283 12.2364 0.235386 9.86015C0.708055 7.48388 1.87475 5.30114 3.58795 3.58795C5.30114 1.87475 7.48388 0.708055 9.86015 0.235386C12.2364 -0.237283 14.6995 0.00530772 16.9379 0.932481C19.1763 1.85965 21.0895 3.42977 22.4355 5.44427C23.7816 7.45877 24.5 9.82718 24.5 12.25C24.5 15.4989 23.2094 18.6147 20.9121 20.9121C18.6147 23.2094 15.4989 24.5 12.25 24.5ZM12.25 1.75001C10.1733 1.75001 8.14323 2.36582 6.41652 3.51957C4.6898 4.67333 3.34399 6.31321 2.54927 8.23183C1.75455 10.1505 1.54662 12.2617 1.95176 14.2985C2.3569 16.3353 3.35693 18.2062 4.82538 19.6746C6.29384 21.1431 8.16476 22.1431 10.2016 22.5482C12.2384 22.9534 14.3496 22.7455 16.2682 21.9507C18.1868 21.156 19.8267 19.8102 20.9804 18.0835C22.1342 16.3568 22.75 14.3267 22.75 12.25C22.75 9.46523 21.6438 6.79452 19.6746 4.82538C17.7055 2.85625 15.0348 1.75001 12.25 1.75001V1.75001Z" fill="#FEFDFD"/>
<path d="M15.8913 18.125L11 13.2337V5H12.75V12.5075L17.125 16.8913L15.8913 18.125Z" fill="#FEFDFD"/>
</svg>
