<svg width="18" height="18" viewBox="0 0 18 18" fill="none" xmlns="http://www.w3.org/2000/svg">
<path d="M12.158 11.9224C10.9637 10.7647 9.30133 10.0466 7.46332 10.0466C3.82641 10.0466 0.87799 12.8576 0.87799 16.3257C0.87799 16.5569 0.681386 16.7441 0.439148 16.7441C0.196604 16.7441 0 16.5569 0 16.3257C0 12.3954 3.34135 9.20949 7.46329 9.20949C9.63057 9.20949 11.5822 10.0901 12.9456 11.4967C12.6602 11.6015 12.3953 11.7458 12.1579 11.9224L12.158 11.9224ZM7.46332 8.37206C5.03882 8.37206 3.0731 6.49806 3.0731 4.18603C3.0731 1.87429 5.03882 0 7.46332 0C9.88813 0 11.8535 1.87429 11.8535 4.18603C11.8535 6.49806 9.88813 8.37206 7.46332 8.37206ZM7.46332 7.53493C9.40301 7.53493 10.9756 6.03551 10.9756 4.18603C10.9756 2.33655 9.40301 0.83743 7.46332 0.83743C5.52362 0.83743 3.95106 2.33655 3.95106 4.18603C3.95106 6.03551 5.52362 7.53493 7.46332 7.53493ZM14.0486 18C11.8664 18 10.0976 16.3135 10.0976 14.2327C10.0976 12.152 11.8664 10.4651 14.0486 10.4651C16.2309 10.4651 18 12.152 18 14.2327C18 16.3135 16.2309 18 14.0486 18ZM14.0486 17.1629C15.7458 17.1629 17.1217 15.8509 17.1217 14.2327C17.1217 12.6145 15.7458 11.3026 14.0486 11.3026C12.3515 11.3026 10.9756 12.6145 10.9756 14.2327C10.9756 15.8509 12.3515 17.1629 14.0486 17.1629ZM15.3658 13.814C15.6083 13.814 15.8049 14.0014 15.8049 14.2327C15.8049 14.464 15.6083 14.6511 15.3658 14.6511H14.5974C14.5368 14.6511 14.4878 14.6981 14.4878 14.7559V15.4886C14.4878 15.7195 14.2912 15.907 14.0487 15.907C13.8061 15.907 13.6098 15.7195 13.6098 15.4886V14.7559C13.6098 14.6981 13.5605 14.6511 13.4999 14.6511H12.7315C12.4893 14.6511 12.2927 14.464 12.2927 14.2327C12.2927 14.0014 12.4893 13.814 12.7315 13.814H13.4999C13.5605 13.814 13.6098 13.7673 13.6098 13.7094V12.9768C13.6098 12.7456 13.8061 12.5581 14.0487 12.5581C14.2912 12.5581 14.4878 12.7456 14.4878 12.9768V13.7094C14.4878 13.7673 14.5368 13.814 14.5974 13.814H15.3658Z" fill="#111111"/>
</svg>
