<svg width="27" height="35" viewBox="0 0 27 35" fill="none" xmlns="http://www.w3.org/2000/svg">
<path d="M23.0033 17.6058C21.6154 16.4293 19.9454 15.5862 18.2024 15.139C20.8382 14.4167 23.2769 12.8496 24.7993 10.0443C25.8917 8.03003 26.4792 5.66983 26.4523 3.39637C26.4498 3.17968 26.3526 2.97149 26.1887 2.8288C26.0148 2.67761 25.819 2.5066 23.9939 2.73391C22.6085 2.90988 21.2926 3.29723 20.0828 3.88496C17.4432 5.16672 15.4695 7.34808 14.5754 9.9406C14.4991 9.62371 14.4136 9.30965 14.3175 8.99947C13.0357 4.87739 9.52718 1.82433 4.93159 0.833261C4.8954 0.825117 1.19212 0.141416 0.561698 0.648434C0.382172 0.793252 0.267578 1.0287 0.267578 1.25849C0.267578 2.60569 0.480092 4.04498 0.90016 5.5363C2.3115 10.5492 5.82318 14.013 10.6176 15.1896C8.94585 15.6484 7.34968 16.4734 6.01382 17.6053C4.72101 18.7012 3.90104 19.9033 3.57606 21.1789C3.16699 22.7818 3.52214 24.6006 4.57514 26.3002C6.69501 29.7211 10.3323 32.1673 13.5747 34.1913C13.8624 34.3708 14.186 34.4614 14.5092 34.4614C14.832 34.4614 15.1553 34.3715 15.443 34.192C18.6861 32.1678 22.323 29.7216 24.4432 26.3006C25.4963 24.6011 25.851 22.7826 25.4423 21.1794C25.117 19.9041 24.2967 18.7016 23.0038 17.6058L23.0033 17.6058ZM15.8011 11.1731L15.8377 11.0325C16.4841 8.56256 18.2751 6.45661 20.7504 5.25453C21.8106 4.73972 22.9671 4.39981 24.1795 4.24579C24.2714 4.23552 24.5932 4.20861 24.9082 4.18595C24.806 5.9481 24.2923 7.78113 23.4574 9.31922C21.6843 12.5873 18.4113 13.9026 15.2097 14.092C15.2859 13.1364 15.5574 12.1022 15.8011 11.1731L15.8011 11.1731ZM2.36895 5.12526C2.06277 4.03756 1.87757 2.98631 1.8162 1.98998C2.73971 2.06151 4.34869 2.27324 4.60836 2.3221C8.659 3.19558 11.7438 5.861 12.8603 9.4512C13.3262 10.951 13.5149 12.5454 13.6288 14.0973C13.0572 14.0679 12.4966 14.0056 11.9563 13.9156C7.21313 13.1229 3.71889 9.91891 2.36877 5.12527L2.36895 5.12526ZM14.6331 32.9013C14.5554 32.9501 14.4618 32.9501 14.3841 32.9013C12.2093 31.5441 9.85414 29.9913 7.96878 28.1001C9.98184 26.8779 12.2337 26.2282 14.527 26.2282C16.8111 26.2282 19.0551 26.873 21.0629 28.0863C19.1748 29.9835 16.8133 31.5402 14.6331 32.9013H14.6331ZM23.1445 25.4995C22.8344 26.0005 22.4814 26.4786 22.1014 26.9403C19.7932 25.4819 17.1866 24.7047 14.5264 24.7047C11.8563 24.7047 9.24182 25.4868 6.92794 26.9548C6.543 26.4888 6.18643 26.0062 5.87246 25.4995C5.05112 24.1743 4.75313 22.7368 5.05468 21.5548C5.30019 20.5918 5.95548 19.6538 7.00207 18.7665C8.86154 17.1906 11.2932 16.2951 13.6422 16.2951C13.9087 16.2951 14.1744 16.3068 14.4377 16.3302C14.4831 16.3341 14.5352 16.3341 14.5806 16.3302C17.166 16.1029 19.9457 17.0118 22.0163 18.7665C23.0628 19.6538 23.7181 20.5918 23.9636 21.5548C24.2642 22.7367 23.9658 24.1742 23.1444 25.4995L23.1445 25.4995Z" fill="#FFD741"/>
</svg>
