<svg width="32" height="32" viewBox="0 0 32 32" fill="none" stroke="#FEFDFD" xmlns="http://www.w3.org/2000/svg">
<path d="M4 12.0002C4 11.2929 4.28095 10.6146 4.78105 10.1145C5.28115 9.61445 5.95942 9.3335 6.66667 9.3335H7.90667C8.34558 9.33356 8.77772 9.22529 9.16475 9.01828C9.55179 8.81128 9.88174 8.51194 10.1253 8.14683L11.208 6.52016C11.4516 6.15505 11.7815 5.85572 12.1686 5.64871C12.5556 5.4417 12.9878 5.33343 13.4267 5.3335H18.5733C19.0122 5.33343 19.4444 5.4417 19.8314 5.64871C20.2185 5.85572 20.5484 6.15505 20.792 6.52016L21.8747 8.14683C22.1183 8.51194 22.4482 8.81128 22.8352 9.01828C23.2223 9.22529 23.6544 9.33356 24.0933 9.3335H25.3333C26.0406 9.3335 26.7189 9.61445 27.219 10.1145C27.719 10.6146 28 11.2929 28 12.0002V24.0002C28 24.7074 27.719 25.3857 27.219 25.8858C26.7189 26.3859 26.0406 26.6668 25.3333 26.6668H6.66667C5.95942 26.6668 5.28115 26.3859 4.78105 25.8858C4.28095 25.3857 4 24.7074 4 24.0002V12.0002Z" stroke="#FEFDFD" stroke-width="2" stroke-linecap="round" stroke-linejoin="round"/>
<path d="M20 17.3335C20 18.3944 19.5786 19.4118 18.8284 20.1619C18.0783 20.9121 17.0609 21.3335 16 21.3335C14.9391 21.3335 13.9217 20.9121 13.1716 20.1619C12.4214 19.4118 12 18.3944 12 17.3335C12 16.2726 12.4214 15.2552 13.1716 14.5051C13.9217 13.7549 14.9391 13.3335 16 13.3335C17.0609 13.3335 18.0783 13.7549 18.8284 14.5051C19.5786 15.2552 20 16.2726 20 17.3335V17.3335Z" stroke="#FEFDFD" stroke-width="2" stroke-linecap="round" stroke-linejoin="round"/>
</svg>
