<svg width="32" height="41" viewBox="0 0 32 41" fill="#519259" xmlns="http://www.w3.org/2000/svg">
<path d="M32 21.2356L30.3282 16.2244L32 11.2098L27.5918 8.0997L25.8876 3.09718L20.4295 3.07253L15.9998 0L11.5701 3.07443L6.11196 3.09908L4.40775 8.0997L0 11.2074L1.67182 16.222L0 21.2332L4.40775 24.3444L5.86133 28.6071L2.56358 35.6113L7.58744 36.3406L11.0469 40.9382L15.9998 36.1586L21.0163 41L23.9741 36.3445L29.5086 35.6223L25.9891 29.0457L27.5899 24.3448L32 21.2356ZM22.8771 34.7162L20.6731 38.1866L15.9997 33.6805L11.2647 38.25L8.61024 34.7197L5.21231 34.2271L7.50708 29.3525L11.5717 29.3701L15.9997 32.4465L20.4293 29.3686L24.114 29.3545L26.7157 34.215L22.8771 34.7162ZM24.6993 27.223L23.936 27.6033L19.8406 27.6209L15.9998 30.2869L12.1606 27.6209L7.61292 27.6033L7.39675 27.507L5.95211 23.265L2.13119 20.5673L3.58113 16.222L2.13119 11.8753L5.95211 9.18113L7.42925 4.84297L12.1606 4.82185L15.9998 2.15978L19.839 4.82425L24.5704 4.84538L26.0476 9.18354L29.8685 11.8777L28.4185 16.2244L29.8685 20.5697L26.0476 23.2638L24.6993 27.223Z" fill="#519259"/>
<path d="M15.9986 8.3374C11.4907 8.3374 7.82227 11.8747 7.82227 16.225C7.82227 20.5718 11.4907 24.1127 15.9986 24.1127C20.5065 24.1127 24.1749 20.5718 24.1749 16.225C24.1749 11.8728 20.5065 8.3374 15.9986 8.3374ZM15.9986 22.3599C12.4921 22.3599 9.63922 19.6078 9.63922 16.225C9.63922 12.8423 12.4921 10.0902 15.9986 10.0902C19.5051 10.0902 22.3579 12.8423 22.3579 16.225C22.3579 19.6082 19.5051 22.3599 15.9986 22.3599Z" fill="#519259"/>
</svg>
