<svg width="35" height="32" viewBox="0 0 35 32" fill="none" xmlns="http://www.w3.org/2000/svg">
<path d="M6.16425 22.4006C8.29613 22.4006 10.0306 20.5752 10.0306 18.3316C10.0306 16.0883 8.29613 14.2632 6.16425 14.2632C4.03237 14.2632 2.29785 16.0886 2.29785 18.3316C2.29785 20.5755 4.03237 22.4006 6.16425 22.4006ZM6.16425 15.4908C7.653 15.4908 8.86391 16.7652 8.86391 18.3316C8.86391 19.8983 7.65293 21.1727 6.16425 21.1727C4.67556 21.1727 3.46459 19.8983 3.46459 18.3316C3.46459 16.7651 4.67556 15.4908 6.16425 15.4908Z" fill="#519259"/>
<path d="M6.16436 23.5166C2.76537 23.5166 0 26.4271 0 30.004C0 31.1045 0.850979 32 1.89668 32H10.4322C11.4779 32 12.3284 31.1045 12.3284 30.004C12.3284 26.4272 9.56306 23.5166 6.16401 23.5166H6.16436ZM10.4325 30.7721H1.89703C1.49446 30.7721 1.16702 30.4276 1.16702 30.0039C1.16702 27.1039 3.40906 24.7444 6.16463 24.7444C8.92021 24.7444 11.1622 27.1039 11.1622 30.0039C11.1622 30.4275 10.8348 30.7721 10.4328 30.7721H10.4325Z" fill="#519259"/>
<path d="M17.5002 14.8093C19.632 14.8093 21.3665 12.9839 21.3665 10.7409C21.3665 8.49729 19.632 6.67188 17.5002 6.67188C15.3683 6.67188 13.6338 8.49729 13.6338 10.7409C13.6338 12.9842 15.3683 14.8093 17.5002 14.8093ZM17.5002 7.89946C18.9889 7.89946 20.1998 9.1739 20.1998 10.7406C20.1998 12.3068 18.9888 13.5814 17.5002 13.5814C16.0115 13.5814 14.8005 12.307 14.8005 10.7406C14.8005 9.17383 16.0115 7.89946 17.5002 7.89946Z" fill="#519259"/>
<path d="M23.6646 22.4139C23.6646 18.8368 20.8993 15.9263 17.5003 15.9263C14.1012 15.9263 11.3359 18.8365 11.3359 22.4139C11.3359 23.5145 12.1869 24.41 13.2321 24.41H21.7676C22.8139 24.4097 23.6643 23.5144 23.6643 22.4139H23.6646ZM21.7684 23.1822H13.2323C12.8297 23.1822 12.5028 22.8376 12.5028 22.4139C12.5028 19.514 14.7449 17.1539 17.5004 17.1539C20.256 17.1539 22.498 19.5137 22.498 22.4139C22.498 22.8376 22.1706 23.1822 21.7686 23.1822H21.7684Z" fill="#519259"/>
<path d="M28.8352 22.4006C30.9671 22.4006 32.7016 20.5752 32.7016 18.3316C32.7016 16.0883 30.9671 14.2632 28.8352 14.2632C26.7033 14.2632 24.9688 16.0886 24.9688 18.3316C24.9688 20.5755 26.7033 22.4006 28.8352 22.4006ZM28.8352 15.4908C30.3239 15.4908 31.5349 16.7652 31.5349 18.3316C31.5349 19.8983 30.3239 21.1727 28.8352 21.1727C27.3465 21.1727 26.1355 19.8983 26.1355 18.3316C26.1355 16.7651 27.3465 15.4908 28.8352 15.4908Z" fill="#519259"/>
<path d="M28.8362 23.5166C25.4372 23.5166 22.6719 26.4265 22.6719 30.004C22.6719 31.1045 23.5229 32 24.5681 32H33.1036C34.1493 32 35.0002 31.1045 35.0002 30.004C35.0002 26.4272 32.2349 23.5166 28.8359 23.5166H28.8362ZM33.1038 30.7721H24.5683C24.1658 30.7721 23.8389 30.4276 23.8389 30.0039C23.8389 27.1039 26.0809 24.7444 28.8365 24.7444C31.5921 24.7444 33.8341 27.1039 33.8341 30.0039C33.8341 30.4275 33.5067 30.7721 33.1041 30.7721H33.1038Z" fill="#519259"/>
<path d="M17.5002 4.40814C17.8225 4.40814 18.0835 4.13322 18.0835 3.79436V0.613781C18.0835 0.274917 17.8225 0 17.5002 0C17.178 0 16.917 0.274917 16.917 0.613781V3.79436C16.917 4.13294 17.178 4.40814 17.5002 4.40814Z" fill="#519259"/>
<path d="M26.4944 8.32903C26.6438 8.32903 26.793 8.26936 26.907 8.14947L29.044 5.90053C29.2718 5.66073 29.2718 5.27219 29.044 5.03239C28.8161 4.79259 28.4469 4.79259 28.219 5.03239L26.082 7.28133C25.8542 7.52113 25.8542 7.90966 26.082 8.14947C26.1957 8.26908 26.3449 8.32903 26.4944 8.32903H26.4944Z" fill="#519259"/>
<path d="M8.09285 8.14958C8.20678 8.26949 8.35625 8.32915 8.50545 8.32915C8.65492 8.32915 8.80412 8.26948 8.91806 8.14958C9.14592 7.90978 9.14592 7.52123 8.91806 7.28141L6.781 5.03239C6.55314 4.79259 6.18393 4.79259 5.95606 5.03239C5.72819 5.2722 5.72819 5.66075 5.95606 5.90056L8.09285 8.14958Z" fill="#519259"/>
<path d="M12.0927 5.04773C12.1857 5.28382 12.403 5.42685 12.6317 5.42685C12.706 5.42685 12.7817 5.412 12.8549 5.38031C13.1525 5.25071 13.2936 4.89157 13.1707 4.57808L12.014 1.63964C11.8909 1.32619 11.5493 1.17717 11.2517 1.30734C10.9541 1.43695 10.8131 1.79609 10.936 2.10957L12.0927 5.04773Z" fill="#519259"/>
<path d="M22.1444 5.38007C22.2177 5.41204 22.2931 5.4266 22.3677 5.4266C22.5963 5.4266 22.8136 5.28387 22.9067 5.04749L24.0633 2.10908C24.1865 1.79562 24.0454 1.43678 23.7476 1.30686C23.4492 1.17668 23.1087 1.3257 22.9853 1.63915L21.8286 4.57756C21.7055 4.89102 21.8471 5.24986 22.1444 5.38001L22.1444 5.38007Z" fill="#519259"/>
</svg>
