<svg width="28" height="28" viewBox="0 0 28 28" fill="none" xmlns="http://www.w3.org/2000/svg">
<path d="M27.4779 11.2199L16.2243 1.00714C15.5946 0.443635 14.8025 0.133301 13.9953 0.133301C13.1871 0.133301 12.398 0.444117 11.7736 1.00902L0.505757 11.2229C0.170155 11.5333 0.0452619 12.0308 0.19876 12.5238C0.37083 12.9746 0.767916 13.2658 1.21028 13.2658H2.14195V24.1431C2.14195 26.1963 3.6942 27.8666 5.60236 27.8666H22.3841C24.2923 27.8666 25.8445 26.1963 25.8445 24.1431L25.8443 13.2658H26.7892C27.2401 13.2658 27.6453 12.958 27.7911 12.5147C27.9634 12.0396 27.8366 11.5282 27.4779 11.2199ZM18.0295 26.8377H9.95783V18.7609C9.95783 18.0833 10.4962 17.5105 11.1337 17.5105H16.8674C17.5083 17.5105 18.0294 18.0715 18.0294 18.7609L18.0295 26.8377ZM26.8953 12.1561C26.8825 12.1947 26.8479 12.2363 26.7897 12.2363H25.3666C25.102 12.2363 24.8883 12.4669 24.8883 12.7509V24.1427C24.8883 25.6283 23.7649 26.8371 22.3844 26.8371H18.9856L18.9858 18.7609C18.9858 17.5038 18.0356 16.4813 16.8673 16.4813H11.1337C9.95779 16.4813 9.00136 17.5038 9.00136 18.7609V26.8377H5.60326C4.22218 26.8377 3.09928 25.6289 3.09928 24.1433V12.7514C3.09928 12.4675 2.88557 12.2369 2.62106 12.2369H1.21074C1.14627 12.2369 1.10272 12.1833 1.09546 12.1659C1.07539 12.1016 1.08734 12.0423 1.12556 12.0069L12.3901 1.79654C12.8416 1.38787 13.412 1.16252 13.9955 1.16252C14.5805 1.16252 15.1548 1.38788 15.6104 1.79589L26.8716 12.0151C26.8985 12.0385 26.9256 12.0739 26.8959 12.1568L26.8953 12.1561Z" fill="#FEFDFD"/>
</svg>
