<svg width="34" height="34" viewBox="0 0 34 34" fill="none" xmlns="http://www.w3.org/2000/svg">
<path d="M17 1C8.1632 1 1 8.16203 1 16.9974C1 25.8327 8.1632 32.9948 17 32.9948C25.8368 32.9948 33 25.8327 33 16.9974C33 8.16203 25.8368 1 17 1Z" stroke="#519259" stroke-width="1.5" stroke-linecap="round" stroke-linejoin="round"/>
<path d="M4.63379 27.1491C4.63379 27.1491 8.20018 22.5962 17.0001 22.5962C25.8001 22.5962 29.3681 27.1491 29.3681 27.1491" stroke="#519259" stroke-width="1.5" stroke-linecap="round" stroke-linejoin="round"/>
<path d="M17.0002 16.9973C18.2732 16.9973 19.4941 16.4917 20.3943 15.5917C21.2945 14.6916 21.8002 13.471 21.8002 12.1981C21.8002 10.9253 21.2945 9.7046 20.3943 8.80458C19.4941 7.90455 18.2732 7.39893 17.0002 7.39893C15.7272 7.39893 14.5063 7.90455 13.6061 8.80458C12.7059 9.7046 12.2002 10.9253 12.2002 12.1981C12.2002 13.471 12.7059 14.6916 13.6061 15.5917C14.5063 16.4917 15.7272 16.9973 17.0002 16.9973V16.9973Z" stroke="#519259" stroke-width="1.5" stroke-linecap="round" stroke-linejoin="round"/>
</svg>
