<svg width="32" height="30" viewBox="0 0 32 30"  fill="#519259" xmlns="http://www.w3.org/2000/svg">
<path d="M27.0443 29.0497H2.67C1.97232 29.0533 1.30101 28.7849 0.798296 28.301C0.548583 28.0652 0.349337 27.7812 0.212109 27.4662C0.0752098 27.1516 0.00296413 26.8122 0 26.4689V8.96398C0.0039585 8.62064 0.0768616 8.28191 0.213755 7.96724C0.350983 7.65258 0.549571 7.36861 0.798296 7.1318C1.14533 6.79538 1.57812 6.56022 2.04948 6.45204L21.0047 0.137952C21.6516 -0.0780812 22.3562 -0.0391657 22.975 0.246129C23.2904 0.386307 23.5738 0.588814 23.809 0.8408C24.0445 1.09312 24.2266 1.38995 24.3447 1.71385L26.0392 6.38315H27.0246C27.7219 6.37953 28.3935 6.648 28.8963 7.13185C29.1437 7.36899 29.3409 7.6533 29.4762 7.96794C29.6114 8.2826 29.6824 8.62165 29.6847 8.96402V12.9044H29.783C30.066 12.8968 30.3477 12.9469 30.6106 13.0522C30.8798 13.1508 31.1249 13.3051 31.3298 13.5053C31.5445 13.7006 31.7154 13.939 31.8325 14.2046C31.9473 14.4651 32.0044 14.7474 31.9997 15.0321V20.3812C31.9984 20.6645 31.9404 20.9448 31.8285 21.2054C31.7167 21.4659 31.5541 21.7014 31.3496 21.898C30.9359 22.2931 30.3847 22.5121 29.8127 22.5088H29.6847V26.4489C29.6837 26.7932 29.6134 27.1339 29.4782 27.4502C29.3426 27.7668 29.145 28.0528 28.8963 28.2909C28.3985 28.7711 27.7358 29.0422 27.044 29.0495L27.0443 29.0497ZM2.35417 7.90061C2.15525 7.95338 1.97217 8.05496 1.82241 8.19613C1.71586 8.29442 1.63075 8.41315 1.57137 8.54541C1.51199 8.67734 1.48032 8.81982 1.47735 8.96461V26.4695C1.48032 26.6143 1.51199 26.7568 1.57137 26.8891C1.63075 27.021 1.71585 27.1397 1.82241 27.238C2.05035 27.4554 2.35417 27.5758 2.66951 27.5728H27.0438C27.3591 27.5758 27.6629 27.4554 27.8912 27.238C27.9961 27.1391 28.0799 27.0203 28.1376 26.8881C28.195 26.7562 28.2254 26.6137 28.226 26.4695V22.5292H22.2358C22.085 22.5391 21.9336 22.5391 21.7829 22.5292C21.0617 22.4704 20.3628 22.2554 19.7333 21.8989L19.4872 21.7511C18.6711 21.2323 18.0295 20.481 17.6449 19.5937C17.2619 18.7167 17.1619 17.7424 17.3589 16.806C17.5159 16.1065 17.824 15.4495 18.2615 14.8812C18.6989 14.3129 19.2551 13.8469 19.8911 13.5157C20.3608 13.2713 20.8662 13.1018 21.3887 13.0134C21.6704 12.955 21.9584 12.9319 22.2456 12.9445H28.2655V9.00443C28.2645 8.8603 28.2345 8.71782 28.1768 8.58556C28.1194 8.45363 28.0353 8.33457 27.9304 8.23595C27.7024 8.01827 27.3986 7.89822 27.0833 7.90085H2.68876C2.58089 7.88667 2.47137 7.88667 2.3635 7.90085L2.35417 7.90061ZM22.2358 21.042H29.8714C30.0614 21.0466 30.2458 20.9757 30.3837 20.8447C30.4451 20.786 30.4939 20.7158 30.5279 20.6379C30.5615 20.5601 30.5796 20.4767 30.5806 20.3916V15.0428C30.5836 14.961 30.5664 14.8802 30.5315 14.8063C30.5011 14.7229 30.4503 14.6483 30.3837 14.5896C30.3124 14.5293 30.2326 14.4798 30.1472 14.4419C30.0551 14.4105 29.9588 14.3937 29.8615 14.3927H22.2358C21.3164 14.3957 20.4326 14.7476 19.763 15.3776C19.4424 15.6771 19.1867 16.0395 19.0119 16.4419C18.8371 16.8443 18.7467 17.2783 18.7467 17.7173C18.7467 18.1559 18.8371 18.59 19.0119 18.9924C19.1867 19.3948 19.4424 19.7572 19.763 20.0567C20.4297 20.6909 21.3154 21.0438 22.2358 21.0419L22.2358 21.042ZM6.97516 6.38417H24.5024L22.9948 2.21716C22.9427 2.07831 22.8638 1.951 22.7622 1.84282C22.661 1.73464 22.5389 1.64756 22.4037 1.58688C22.1061 1.46947 21.7752 1.46947 21.4777 1.58688L6.97516 6.38417ZM24.3841 18.4617H21.606V16.9841H24.3841V18.4617Z"/>
<path d="M12.9102 18.1983C12.5252 17.8556 12.0619 17.61 11.5784 17.4798C12.3096 17.2694 12.9861 16.8129 13.4084 15.9958C13.7114 15.4091 13.8744 14.7217 13.8669 14.0595C13.8662 13.9963 13.8392 13.9357 13.7938 13.8941C13.7455 13.8501 13.6912 13.8003 13.185 13.8665C12.8007 13.9178 12.4356 14.0306 12.1001 14.2018C11.3679 14.5751 10.8204 15.2105 10.5724 15.9656C10.5512 15.8733 10.5275 15.7818 10.5008 15.6915C10.1453 14.4908 9.17203 13.6016 7.89726 13.3129C7.88723 13.3105 6.85997 13.1114 6.6851 13.2591C6.6353 13.3012 6.60352 13.3698 6.60352 13.4368C6.60352 13.8292 6.66246 14.2484 6.77899 14.6828C7.17048 16.1429 8.14458 17.1518 9.4745 17.4945C9.01078 17.6282 8.56802 17.8684 8.19746 18.1981C7.83885 18.5173 7.6114 18.8675 7.52126 19.239C7.40778 19.7059 7.5063 20.2357 7.79839 20.7307C8.38642 21.7271 9.39537 22.4397 10.2948 23.0292C10.3746 23.0815 10.4643 23.1079 10.554 23.1079C10.6435 23.1079 10.7332 23.0817 10.813 23.0294C11.7126 22.4398 12.7215 21.7273 13.3096 20.7308C13.6017 20.2358 13.7001 19.7062 13.5867 19.2392C13.4965 18.8677 13.269 18.5175 12.9103 18.1983L12.9102 18.1983ZM10.9124 16.3246L10.9225 16.2837C11.1018 15.5642 11.5986 14.9508 12.2853 14.6007C12.5793 14.4507 12.9001 14.3517 13.2364 14.3069C13.2619 14.3039 13.3512 14.296 13.4386 14.2894C13.4102 14.8027 13.2677 15.3366 13.0361 15.7846C12.5443 16.7365 11.6364 17.1196 10.7483 17.1748C10.7695 16.8965 10.8447 16.5952 10.9124 16.3246L10.9124 16.3246ZM7.18642 14.563C7.10148 14.2462 7.05011 13.94 7.03309 13.6498C7.28926 13.6706 7.73557 13.7323 7.8076 13.7466C8.93121 14.001 9.7869 14.7773 10.0966 15.8231C10.2258 16.2599 10.2782 16.7243 10.3098 17.1763C10.1512 17.1678 9.99573 17.1496 9.84585 17.1234C8.53014 16.8925 7.56088 15.9593 7.18637 14.563L7.18642 14.563ZM10.5884 22.6534C10.5668 22.6677 10.5408 22.6677 10.5193 22.6534C9.91601 22.2581 9.26273 21.8058 8.73975 21.255C9.29815 20.899 9.92279 20.7098 10.5589 20.7098C11.1925 20.7098 11.815 20.8976 12.3719 21.251C11.8482 21.8036 11.1931 22.257 10.5884 22.6534H10.5884ZM12.9493 20.4975C12.8633 20.6434 12.7654 20.7827 12.66 20.9172C12.0197 20.4924 11.2967 20.266 10.5588 20.266C9.81811 20.266 9.09288 20.4938 8.45103 20.9214C8.34425 20.7857 8.24535 20.6451 8.15825 20.4975C7.93042 20.1115 7.84776 19.6928 7.93141 19.3485C7.99951 19.068 8.18128 18.7948 8.47159 18.5364C8.98739 18.0773 9.66191 17.8165 10.3135 17.8165C10.3874 17.8165 10.4611 17.8199 10.5342 17.8267C10.5467 17.8279 10.5612 17.8279 10.5738 17.8267C11.291 17.7605 12.062 18.0253 12.6364 18.5364C12.9267 18.7948 13.1085 19.068 13.1766 19.3485C13.2599 19.6928 13.1772 20.1115 12.9493 20.4975L12.9493 20.4975Z"/>
</svg>
